<?xml version="1.0" encoding="UTF-8" standalone="no"?>
<svg width="180px" height="111px" viewBox="0 0 180 111" version="1.1" xmlns="http://www.w3.org/2000/svg" xmlns:xlink="http://www.w3.org/1999/xlink" xmlns:sketch="http://www.bohemiancoding.com/sketch/ns">
    <!-- Generator: Sketch 3.4.1 (15681) - http://www.bohemiancoding.com/sketch -->
    <title>ListenPageLogoSVG-outlined</title>
    <desc>Created with Sketch.</desc>
    <defs></defs>
    <g id="Page-1" stroke="none" stroke-width="1" fill="none" fill-rule="evenodd" sketch:type="MSPage">
        <g id="ListenPageLogoSVG-outlined" sketch:type="MSLayerGroup">
            <g id="Page-1" sketch:type="MSShapeGroup">
                <g id="iPhone-6">
                    <g id="KVMR-_x2B_-Nevada-City-Copy">
                        <g id="Group" fill="#84C447">
                            <path d="M8.062,23 L26.843,3.75 L36.562,3.75 L14.75,25.594 L36.688,52 L26.938,52 L9.562,30.531 L8.062,32.031 L8.062,52 L0.781,52 L0.781,3.75 L8.062,3.75 L8.062,23 L8.062,23 Z" id="Shape"></path>
                            <path d="M45.625,3.75 L58.969,37.188 L72.5,3.75 L80.469,3.75 L58.812,55.625 L37.656,3.75 L45.625,3.75 L45.625,3.75 Z" id="Shape"></path>
                            <path d="M84.781,52 L94.937,0.125 L111.499,37.625 L128.655,0.125 L137.781,52 L130.312,52 L125.656,22.875 L111.375,54.219 L97.5,22.844 L92.312,52 L84.781,52 L84.781,52 Z" id="Shape"></path>
                            <path d="M164.344,31.438 L179.281,52 L170.375,52 L156.594,32.25 L155.282,32.25 L155.282,52 L148,52 L148,3.75 L156.531,3.75 C162.906,3.75 167.51,4.948 170.343,7.344 C173.468,10.011 175.031,13.532 175.031,17.906 C175.031,21.323 174.052,24.26 172.093,26.718 C170.135,29.178 167.552,30.75 164.344,31.438 L164.344,31.438 Z M155.281,25.906 L157.593,25.906 C164.489,25.906 167.937,23.271 167.937,18 C167.937,13.062 164.583,10.594 157.875,10.594 L155.281,10.594 L155.281,25.906 L155.281,25.906 Z" id="Shape"></path>
                        </g>
                        <g id="Group" transform="translate(21.000000, 84.000000)" fill="#800080">
                            <path d="M0.168,20 L0.168,0.676 L13.363,14.481 L13.363,1.906 L16.093,1.906 L16.093,21.101 L2.898,7.331 L2.898,20 L0.168,20 L0.168,20 Z" id="Shape"></path>
                            <path d="M30.59,14.914 L22.41,14.914 C22.48,15.852 22.785,16.598 23.324,17.152 C23.863,17.699 24.554,17.972 25.398,17.972 C26.054,17.972 26.597,17.816 27.027,17.503 C27.449,17.191 27.929,16.612 28.468,15.769 L30.695,17.011 C30.351,17.597 29.988,18.099 29.605,18.517 C29.222,18.935 28.812,19.279 28.375,19.548 C27.938,19.817 27.465,20.015 26.957,20.14 C26.449,20.265 25.898,20.328 25.305,20.328 C23.602,20.328 22.235,19.781 21.203,18.687 C20.172,17.585 19.656,16.125 19.656,14.304 C19.656,12.499 20.156,11.038 21.156,9.921 C22.164,8.819 23.5,8.269 25.164,8.269 C26.844,8.269 28.172,8.804 29.148,9.874 C30.117,10.936 30.601,12.409 30.601,14.292 L30.59,14.914 L30.59,14.914 Z M27.883,12.758 C27.516,11.352 26.629,10.649 25.223,10.649 C24.903,10.649 24.602,10.698 24.321,10.795 C24.04,10.892 23.784,11.033 23.553,11.217 C23.322,11.401 23.125,11.621 22.961,11.879 C22.797,12.137 22.672,12.43 22.586,12.758 L27.883,12.758 L27.883,12.758 Z" id="Shape"></path>
                            <path d="M34.48,8.586 L37.433,14.996 L40.374,8.586 L43.339,8.586 L37.409,20.785 L31.526,8.586 L34.48,8.586 L34.48,8.586 Z" id="Shape"></path>
                            <path d="M53.125,8.586 L55.773,8.586 L55.773,20 L53.125,20 L53.125,18.805 C52.039,19.821 50.871,20.328 49.621,20.328 C48.043,20.328 46.738,19.758 45.707,18.617 C44.684,17.453 44.172,16 44.172,14.258 C44.172,12.547 44.684,11.121 45.707,9.981 C46.73,8.841 48.012,8.27 49.551,8.27 C50.879,8.27 52.071,8.817 53.125,9.911 L53.125,8.586 L53.125,8.586 Z M46.867,14.258 C46.867,15.352 47.16,16.242 47.746,16.93 C48.348,17.625 49.105,17.973 50.019,17.973 C50.996,17.973 51.785,17.637 52.386,16.965 C52.988,16.27 53.288,15.387 53.288,14.317 C53.288,13.247 52.987,12.364 52.386,11.669 C51.784,10.989 51.003,10.649 50.042,10.649 C49.136,10.649 48.378,10.993 47.769,11.68 C47.168,12.375 46.867,13.234 46.867,14.258 L46.867,14.258 Z" id="Shape"></path>
                            <path d="M67.516,0.207 L70.164,0.207 L70.164,20 L67.516,20 L67.516,18.805 C66.477,19.821 65.301,20.328 63.989,20.328 C62.427,20.328 61.13,19.758 60.098,18.617 C59.075,17.453 58.563,16 58.563,14.258 C58.563,12.555 59.075,11.133 60.098,9.992 C61.114,8.844 62.391,8.269 63.93,8.269 C65.266,8.269 66.461,8.816 67.516,9.91 L67.516,0.207 L67.516,0.207 Z M61.258,14.258 C61.258,15.352 61.551,16.242 62.137,16.93 C62.739,17.625 63.496,17.973 64.41,17.973 C65.387,17.973 66.176,17.637 66.777,16.965 C67.379,16.27 67.679,15.387 67.679,14.317 C67.679,13.247 67.378,12.364 66.777,11.669 C66.175,10.989 65.394,10.649 64.433,10.649 C63.527,10.649 62.769,10.993 62.16,11.68 C61.559,12.375 61.258,13.234 61.258,14.258 L61.258,14.258 Z" id="Shape"></path>
                            <path d="M81.906,8.586 L84.554,8.586 L84.554,20 L81.906,20 L81.906,18.805 C80.82,19.821 79.652,20.328 78.402,20.328 C76.824,20.328 75.519,19.758 74.488,18.617 C73.465,17.453 72.953,16 72.953,14.258 C72.953,12.547 73.465,11.121 74.488,9.981 C75.511,8.841 76.793,8.27 78.332,8.27 C79.66,8.27 80.852,8.817 81.906,9.911 L81.906,8.586 L81.906,8.586 Z M75.648,14.258 C75.648,15.352 75.941,16.242 76.527,16.93 C77.129,17.625 77.886,17.973 78.8,17.973 C79.777,17.973 80.566,17.637 81.167,16.965 C81.769,16.27 82.069,15.387 82.069,14.317 C82.069,13.247 81.768,12.364 81.167,11.669 C80.565,10.989 79.784,10.649 78.823,10.649 C77.917,10.649 77.159,10.993 76.55,11.68 C75.949,12.375 75.648,13.234 75.648,14.258 L75.648,14.258 Z" id="Shape"></path>
                            <path d="M109.164,2.873 L109.164,6.102 C107.586,4.782 105.953,4.122 104.266,4.122 C102.407,4.122 100.84,4.79 99.567,6.126 C98.286,7.454 97.645,9.079 97.645,11.001 C97.645,12.899 98.286,14.501 99.567,15.806 C100.848,17.111 102.419,17.763 104.278,17.763 C105.239,17.763 106.055,17.607 106.727,17.294 C107.102,17.138 107.491,16.927 107.893,16.661 C108.295,16.395 108.719,16.075 109.164,15.7 L109.164,18.999 C107.602,19.886 105.961,20.329 104.242,20.329 C101.656,20.329 99.449,19.427 97.621,17.622 C95.801,15.802 94.891,13.606 94.891,11.036 C94.891,8.731 95.653,6.677 97.176,4.872 C99.051,2.661 101.477,1.556 104.453,1.556 C106.078,1.555 107.648,1.994 109.164,2.873 L109.164,2.873 Z" id="Shape"></path>
                            <path d="M111.707,3.84 C111.707,3.379 111.875,2.981 112.211,2.645 C112.547,2.309 112.949,2.141 113.418,2.141 C113.895,2.141 114.301,2.309 114.637,2.645 C114.973,2.973 115.141,3.375 115.141,3.852 C115.141,4.329 114.973,4.735 114.637,5.071 C114.309,5.407 113.907,5.575 113.43,5.575 C112.953,5.575 112.547,5.407 112.211,5.071 C111.875,4.735 111.707,4.324 111.707,3.84 L111.707,3.84 Z M114.742,8.586 L114.742,20 L112.105,20 L112.105,8.586 L114.742,8.586 L114.742,8.586 Z" id="Shape"></path>
                            <path d="M120.801,11.047 L120.801,20 L118.164,20 L118.164,11.047 L117.039,11.047 L117.039,8.586 L118.164,8.586 L118.164,4.402 L120.801,4.402 L120.801,8.586 L122.852,8.586 L122.852,11.047 L120.801,11.047 L120.801,11.047 Z" id="Shape"></path>
                            <path d="M128.242,17.879 L123.109,8.586 L126.168,8.586 L129.66,15.148 L132.918,8.586 L135.895,8.586 L126.801,26.211 L123.789,26.211 L128.242,17.879 L128.242,17.879 Z" id="Shape"></path>
                        </g>
                    </g>
                </g>
            </g>
        </g>
    </g>
</svg>