<?xml version="1.0" encoding="UTF-8" standalone="no"?>
<svg width="183px" height="866px" viewBox="0 0 183 866" version="1.1" xmlns="http://www.w3.org/2000/svg" xmlns:xlink="http://www.w3.org/1999/xlink" xmlns:sketch="http://www.bohemiancoding.com/sketch/ns">
    <!-- Generator: Sketch 3.4 (15588) - http://www.bohemiancoding.com/sketch -->
    <title>new_tower_white copy 3</title>
    <desc>Created with Sketch.</desc>
    <defs></defs>
    <g id="Page-1" stroke="none" stroke-width="1" fill="none" fill-rule="evenodd" sketch:type="MSPage">
        <g id="Tablet-7″-Portrait" sketch:type="MSArtboardGroup" transform="translate(-28.000000, -33.000000)">
            <g id="new_tower_white-copy-3" sketch:type="MSLayerGroup" transform="translate(28.000000, 34.000000)">
                <path d="M115.725196,857.964859 L89.0343603,795.609441 C88.9395726,795.384869 89.0482317,795.130507 89.2701737,795.034261 C89.3695852,794.993014 89.4782443,794.990722 89.573032,795.018221 L119.574502,803.737575 C119.886608,803.826946 120.066936,804.154638 119.976772,804.461706 C119.953653,804.523578 119.923598,804.587741 119.891232,804.635864 L112.405313,815.177002 L104.806112,825.635645 L97.1930401,836.087413 C94.6776976,839.584322 92.0583198,843.010192 89.4990514,846.47731 C89.4759324,846.504808 89.441254,846.511683 89.4135112,846.491059 C89.3857685,846.470435 89.3811447,846.436062 89.3996398,846.410855 C91.8294422,842.849783 94.203759,839.254338 96.6774874,835.729931 L104.047811,825.108588 L111.429694,814.49412 L118.920235,803.959856 L119.236965,804.860436 L89.3233473,795.85922 L89.8550833,795.268 L115.836167,857.919028 C115.850038,857.948818 115.836167,857.983192 115.8038,857.994649 C115.771434,858.008399 115.734443,857.994649 115.725196,857.964859 L115.725196,857.964859 Z" id="Shape" fill="#666666" sketch:type="MSShapeGroup"></path>
                <path d="M88.0159898,782.295687 L117.367277,747.247496 L117.548544,747.822811 L91.5669611,740.988069 L92.1665361,740.299992 L98.729326,754.873872 L105.196835,769.493777 C109.363648,779.304049 113.674546,789.047584 117.697276,798.917688 C117.71122,798.949905 117.692628,798.982123 117.664741,798.995931 C117.632206,799.007437 117.601995,798.993629 117.588051,798.966014 C112.958774,789.355952 108.624637,779.621622 104.144092,769.951728 L97.6394009,755.350233 L91.2346385,740.705014 C91.1207658,740.451875 91.2346385,740.155013 91.4879473,740.042251 C91.6018201,739.993925 91.7249886,739.989322 91.8318896,740.016937 L117.734459,747.130132 C117.925022,747.18076 118.038894,747.376367 117.987768,747.56507 C117.973824,747.615698 117.945937,747.668627 117.915726,747.705447 L88.0996514,782.369327 C88.0764121,782.394641 88.0415531,782.399243 88.0136659,782.376231 C87.9973983,782.355519 87.9927505,782.318699 88.0159898,782.295687 L88.0159898,782.295687 Z" id="Shape" fill="#666666" sketch:type="MSShapeGroup"></path>
                <path d="M90.0096495,731.117837 L117.350997,694.840976 L117.483148,695.375238 L92.5112448,683.95999 L93.1905474,683.310585 L99.499019,698.13636 L105.712435,713.003586 C109.707105,722.974945 113.845518,732.888732 117.694126,742.919965 C117.708036,742.949902 117.689489,742.984445 117.657031,742.995959 C117.629209,743.007473 117.594433,742.993656 117.585159,742.963719 C113.124483,733.183498 108.962886,723.281225 104.652908,713.441129 L98.404716,698.590022 L92.2608535,683.695161 C92.1518869,683.439545 92.2701272,683.147082 92.5274739,683.038848 C92.6642618,682.981277 92.8172788,682.990488 92.940156,683.048059 L117.7915,694.730439 C117.972338,694.811039 118.048847,695.020598 117.967702,695.197918 L117.92597,695.267004 L90.1093424,731.186923 C90.0907949,731.214557 90.0560183,731.219163 90.028197,731.198437 C90.0003758,731.177712 89.991102,731.143169 90.0096495,731.117837 L90.0096495,731.117837 Z" id="Shape" fill="#666666" sketch:type="MSShapeGroup"></path>
                <ellipse id="Oval" stroke="#48C7ED" stroke-width="0.6887" sketch:type="MSShapeGroup" cx="91" cy="91.5" rx="24" ry="24.5"></ellipse>
                <ellipse id="Oval" stroke="#7AC143" stroke-width="0.6887" sketch:type="MSShapeGroup" cx="90.5" cy="91" rx="62.5" ry="63"></ellipse>
                <ellipse id="Oval" stroke="#FEE000" stroke-width="0.6887" sketch:type="MSShapeGroup" cx="91.5" cy="91" rx="90.5" ry="91"></ellipse>
                <g id="Group" transform="translate(84.000000, 91.000000)" sketch:type="MSShapeGroup">
                    <path d="M5,124 L6.41,5" id="Shape" stroke="#999999" stroke-width="0.6887"></path>
                    <g>
                        <circle id="Oval" fill="#FFFFFF" cx="7.5" cy="5.5" r="4.5"></circle>
                        <path d="M11.9892281,5.07005308 C11.9519131,7.82781995 9.68036175,10.0391707 6.92837966,9.99947379 C4.17173319,9.962112 1.96315095,7.68771325 2.00046596,4.93228149 C2.04244535,2.17451462 4.30933229,-0.0391712315 7.06597876,0.000525666726 C9.81796086,0.0378874533 12.0265431,2.31228621 11.9892281,5.07005308 C11.9519131,7.82781995 12.0265431,2.31228621 11.9892281,5.07005308 L11.9892281,5.07005308 Z M3.01039445,4.94510792 C2.97626278,7.14934866 4.74867138,8.9679083 6.94772579,8.99964155 C9.15165615,9.02893379 10.9655103,7.25919455 10.999642,5.05495381 C11.0288977,2.84827205 9.26136507,1.02971241 7.05743471,1.00042018 C4.8583803,0.968686922 3.03965016,2.73842616 3.01039445,4.94510792 C2.97626278,7.14934866 3.03965016,2.73842616 3.01039445,4.94510792 L3.01039445,4.94510792 Z" id="Shape" fill="#999999"></path>
                    </g>
                </g>
                <path d="M87,865 L97,230 L64,240 L23,865 L87,865 Z" id="tower_side_9_" stroke="#7E8580" stroke-width="0.4" fill="#EEEEEE" sketch:type="MSShapeGroup"></path>
                <path d="M121,865 L117,248 L97,230 L87,865 L121,865 Z" id="tower_side_2_9_" stroke="#7E8580" stroke-width="0.4" fill="#9D9D9D" sketch:type="MSShapeGroup"></path>
                <path d="M83,234 L89.0471845,207 L93,230.865272 L83,234 Z" id="Shape" fill="#EEEEEE" sketch:type="MSShapeGroup"></path>
                <path d="M97,229.688222 L92.8420768,231 L89,207 L97,229.688222 Z" id="Shape" fill="#9D9D9D" sketch:type="MSShapeGroup"></path>
                <path d="M91.0132372,679.922291 L116.384569,646.354623 L116.485865,646.887002 L93.8697911,633.96176 L94.5721117,633.313646 L100.278467,646.889316 C102.146819,651.430743 104.073699,655.944393 105.888027,660.506652 C109.498675,669.642743 113.239883,678.718651 116.708716,687.919554 C116.722223,687.949645 116.704214,687.98205 116.6727,687.995938 C116.645688,688.007512 116.616424,687.993624 116.602918,687.963533 C112.55332,679.021876 108.7851,669.955226 104.877316,660.948758 C102.943683,656.439737 101.109096,651.882108 99.2182326,647.352255 L93.6514415,633.714087 C93.5411411,633.454842 93.6604456,633.153932 93.9103096,633.040512 C94.0588775,632.975701 94.2277045,632.991903 94.3582641,633.065974 L116.823519,646.262035 C116.990095,646.356937 117.048622,646.574518 116.95633,646.745806 L116.924815,646.794414 L91.0987763,679.991732 C91.076266,680.019509 91.0425006,680.024138 91.0154882,680.000991 C90.995229,679.984788 90.995229,679.947753 91.0132372,679.922291 L91.0132372,679.922291 Z" id="Shape" fill="#666666" sketch:type="MSShapeGroup"></path>
                <path d="M92.0166387,627.576635 L116.42841,601.885818 L116.494808,602.415573 L94.926727,589.92682 L95.6250566,589.306448 C99.288425,598.012562 102.906001,606.739586 106.4526,615.494492 C109.868691,624.302839 113.447344,633.048451 116.71919,641.919532 C116.732927,641.952061 116.71461,641.98459 116.682556,641.996207 C116.655081,642.007825 116.620737,641.99156 116.611578,641.963678 C112.71696,633.355152 109.129148,624.614186 105.387933,615.942926 C101.770357,607.215901 98.2191793,598.463318 94.7229521,589.685177 C94.6153407,589.43424 94.7321105,589.143804 94.9816775,589.036924 C95.123633,588.976513 95.2907742,588.992777 95.4189921,589.067129 L116.83138,601.82773 C116.991653,601.918346 117.046603,602.125137 116.957309,602.285458 C116.943571,602.311016 116.920675,602.336574 116.920675,602.336574 L92.1013541,627.65331 C92.0784581,627.678868 92.044114,627.678868 92.0212179,627.65331 C91.9937427,627.637046 91.9937427,627.59987 92.0166387,627.576635 L92.0166387,627.576635 Z" id="Shape" fill="#666666" sketch:type="MSShapeGroup"></path>
                <path d="M95.0084631,582.733639 L115.612685,556.326789 L115.685103,556.659241 L95.8704764,546.597949 L96.3096594,546.191619 L107.856901,571.979739 C111.571267,580.637344 115.395429,589.244158 119,597.945629 C119,597.945629 119,597.989494 118.981311,597.99642 C118.957951,598.005655 118.93459,597.99642 118.927582,597.975642 C114.886164,589.463484 111.062002,580.85667 107.123372,572.298339 L95.7256395,546.443266 C95.653221,546.286275 95.7256395,546.099271 95.8844929,546.027701 C95.9756,545.986145 96.0807236,545.993071 96.1624864,546.036936 L115.890678,556.266762 C116.005146,556.319862 116.044859,556.453767 115.99113,556.562275 L115.967769,556.599215 L95.0715372,582.786739 C95.0715372,582.786739 95.0294878,582.807517 95.0131353,582.793665 C94.9991188,582.775196 94.9944466,582.7498 95.0084631,582.733639 L95.0084631,582.733639 Z" id="Shape" fill="#666666" sketch:type="MSShapeGroup"></path>
                <path d="M95.0087585,540.143259 L116.603024,516.40186 L116.645082,516.73792 L97.5415636,504.605459 L98.0345726,504.207674 C101.266002,511.788461 104.46472,519.385252 107.609697,527.002617 C110.675232,534.651989 113.843575,542.26021 116.810976,549.946159 C116.820322,549.966735 116.806303,549.989596 116.78761,549.996454 C116.764245,550.005599 116.745553,549.994168 116.745553,549.994168 C113.350566,542.454531 110.175214,534.850882 106.887707,527.288383 C103.684317,519.696165 100.534666,512.081085 97.4130541,504.454575 C97.3452945,504.287688 97.4224002,504.095653 97.5953039,504.024784 C97.700448,503.981347 97.8196113,503.99735 97.9107362,504.054503 L116.895091,516.36071 C117.000235,516.427007 117.032947,516.566461 116.962851,516.669336 L116.939485,516.699056 L95.0671719,540.193554 L95.0297874,540.209557 C94.9947393,540.184409 94.9947393,540.159262 95.0087585,540.143259 L95.0087585,540.143259 Z" id="Shape" fill="#666666" sketch:type="MSShapeGroup"></path>
                <path d="M97.2915121,497.472163 L115.627961,476.255147 L115.684596,476.590141 L97.166913,466.609172 L97.6086733,466.200755 L106.906027,487.993684 C109.876016,495.313062 112.950214,502.586549 115.822788,509.949522 C115.83185,509.970172 115.818257,509.993117 115.800134,510 C115.800134,510 115.759356,509.997706 115.75256,509.97935 C112.46541,502.795347 109.388947,495.521859 106.199211,488.296555 L97.0264559,466.450853 C96.9562274,466.287945 97.0309868,466.099798 97.1895674,466.026375 C97.2824503,465.985075 97.3889259,465.994252 97.4682162,466.040142 L115.888486,476.204669 C115.99043,476.259736 116.028943,476.390521 115.976838,476.496067 L115.945122,476.539662 L97.348148,497.524936 C97.3345554,497.540997 97.3073701,497.543292 97.2915121,497.527231 C97.2779195,497.511169 97.2779195,497.490519 97.2915121,497.472163 L97.2915121,497.472163 Z" id="Shape" fill="#666666" sketch:type="MSShapeGroup"></path>
                <path d="M97.0118161,460.468524 L113.591709,440.10705 L113.654353,440.44833 L98.325029,431.621181 L98.805303,431.206112 C101.401567,437.286882 103.972308,443.383795 106.487366,449.501461 C108.925859,455.649104 111.466439,461.75524 113.805164,467.946697 C113.814445,467.96745 113.805164,467.990509 113.781962,467.997427 C113.763401,468.004345 113.740199,467.995121 113.740199,467.995121 C110.981524,461.958163 108.429344,455.854333 105.772756,449.79201 C103.199694,443.699709 100.675355,437.586655 98.183499,431.459765 C98.1115739,431.291431 98.1927797,431.095426 98.3598315,431.026248 C98.4595985,430.982435 98.5779269,430.996271 98.663773,431.047002 L113.88637,440.051708 C113.995417,440.113968 114.03022,440.254631 113.972216,440.36301 L113.949014,440.395293 L97.0698202,460.519255 C97.0558992,460.537703 97.0280573,460.540009 97.0164564,460.523867 C96.9978951,460.507725 96.9932548,460.48236 97.0118161,460.468524 L97.0118161,460.468524 Z" id="Shape" fill="#666666" sketch:type="MSShapeGroup"></path>
                <path d="M99.0079456,426.090319 L113.567479,402.813222 L113.677067,403.179515 L100.323,397.661791 L100.750169,397.223173 L103.899144,405.860219 C104.921219,408.746234 105.98355,411.622916 106.978787,414.520597 C108.940187,420.329955 110.997755,426.104318 112.862986,431.951005 C112.871932,431.972003 112.858513,431.995334 112.836148,432 C112.836148,432 112.795891,431.995334 112.791418,431.976669 C110.528093,426.283964 108.457105,420.516601 106.292185,414.786567 C105.220908,411.916884 104.221198,409.019204 103.181231,406.137855 L100.132899,397.46348 C100.068041,397.286166 100.155264,397.087855 100.325237,397.022529 C100.403514,396.989865 100.490737,396.994532 100.564541,397.024862 L113.851513,402.719899 C113.97452,402.768894 114.030432,402.913545 113.983466,403.041864 L113.961101,403.088525 L99.0705672,426.136981 C99.0705672,426.136981 99.0303105,426.160311 99.014655,426.146313 C98.9989996,426.134648 98.9945267,426.108984 99.0079456,426.090319 L99.0079456,426.090319 Z" id="Shape" fill="#666666" sketch:type="MSShapeGroup"></path>
                <path d="M100.302093,391.594074 L113.545365,368.260704 L113.65557,368.601917 L100.201268,362.64471 L100.653809,362.221699 C102.944651,368.136839 105.205011,374.066002 107.413786,380.013861 C109.53815,385.994439 111.772718,391.93295 113.798601,397.950921 C113.80329,397.971955 113.793911,397.995326 113.770464,398 L113.728258,397.997663 C111.268592,392.117579 109.029334,386.183742 106.679873,380.287299 C104.412478,374.360473 102.201358,368.414951 100.02072,362.455407 C99.9574114,362.282463 100.044168,362.088486 100.212992,362.023048 C100.299748,361.987992 100.395884,361.995003 100.473261,362.030059 L113.854875,368.155536 C113.979148,368.206952 114.033078,368.35185 113.979148,368.473378 L113.96508,368.499086 L100.367746,391.631467 C100.367746,391.631467 100.33492,391.657175 100.313817,391.64549 C100.297403,391.638478 100.292714,391.615108 100.302093,391.594074 L100.302093,391.594074 Z" id="Shape" fill="#666666" sketch:type="MSShapeGroup"></path>
                <path d="M99.0042596,357.601513 L113.816506,342.844628 L113.83006,343.019784 L100.872451,334.305777 L101.109645,334.098356 L107.590709,347.995594 L113.909125,361.971191 L113.909125,361.994238 C113.891053,362.003457 113.877499,361.998848 113.877499,361.998848 L107.263155,348.152313 L100.815976,334.238942 C100.775314,334.155973 100.811458,334.056872 100.890523,334.015387 C100.942479,333.990036 101.005731,333.99695 101.048652,334.029216 L113.949787,342.828495 C114.001744,342.863065 114.015298,342.932206 113.981413,342.985213 L113.967859,343.003651 L99.0291086,357.626864 C99.0245906,357.636083 99.0110366,357.633778 99.0110366,357.633778 C98.9952236,357.622255 98.9997416,357.608427 99.0042596,357.601513 L99.0042596,357.601513 Z" id="Shape" fill="#666666" sketch:type="MSShapeGroup"></path>
                <path d="M99.0022593,328.973641 L113.81173,312.125907 L113.829804,312.298155 L101.153078,303.30168 L101.390301,303.108482 L107.117533,319.008851 L112.668543,334.974396 C112.668543,334.974396 112.668543,334.997672 112.654987,335 L112.636913,334.997672 L106.771866,319.141529 L101.087559,303.222538 C101.05593,303.138742 101.101115,303.043307 101.184708,303.01072 C101.232152,302.989771 101.290893,303.001409 101.3293,303.029341 L113.954064,312.107286 C114.001508,312.144529 114.015064,312.216687 113.981175,312.267896 L113.972138,312.279534 L99.0316297,329.001574 C99.0225926,329.010884 99.0090371,329.010884 99,329.001574 L99,328.973641 L99.0022593,328.973641 Z" id="Shape" fill="#666666" sketch:type="MSShapeGroup"></path>
                <path d="M101.146496,298.147073 L113.819885,284.84737 L113.838081,285.007994 L101.071438,276.292971 L101.307984,276.095633 L107.703815,290.489877 L113.913138,304.971317 L113.913138,304.994263 C113.894943,305.003442 113.881296,304.998853 113.881296,304.998853 L107.35582,290.648207 L101.016851,276.226427 C100.97591,276.146115 101.012302,276.052035 101.096457,276.01532 C101.144221,275.990079 101.207907,275.996963 101.251122,276.029088 L113.956353,284.833602 C114.001843,284.868021 114.013215,284.932271 113.983647,284.978164 L113.97,284.994226 L101.171515,298.172314 L101.144221,298.172314 C101.146496,298.174609 101.137398,298.153957 101.146496,298.147073 L101.146496,298.147073 Z" id="Shape" fill="#666666" sketch:type="MSShapeGroup"></path>
                <path d="M101.145165,271.617924 L113.811702,258.796059 L113.843528,258.975772 L101.097427,253.31019 L101.306566,253.089004 L107.696666,265.986902 L113.907179,278.972352 L113.898086,279 L113.870807,278.990784 L107.357952,266.157399 L101.017864,253.238765 C100.976945,253.158125 101.008771,253.059052 101.088334,253.01758 C101.133799,252.994539 101.186084,252.994539 101.227002,253.015275 L113.934458,258.775323 C113.991289,258.800667 114.014021,258.865179 113.991289,258.920476 L113.968556,258.955036 L101.172444,271.647876 L101.145165,271.647876 L101.145165,271.617924 L101.145165,271.617924 Z" id="Shape" fill="#666666" sketch:type="MSShapeGroup"></path>
                <g id="Group" transform="translate(31.000000, 246.000000)" fill="#999999" sketch:type="MSShapeGroup">
                    <path d="M0.0110083996,603.904523 L45.2784648,545.160156 L45.631651,545.81208 L2.50395222,549.831516 L2.9030067,548.865107 L13.6889449,561.577635 C17.3033694,565.799076 20.8145902,570.10545 24.3854398,574.365915 C31.4950312,582.912094 38.6390238,591.426136 45.6408246,600.061841 C45.659172,600.087091 45.659172,600.123819 45.631651,600.144479 C45.60413,600.165139 45.5697287,600.162843 45.5513814,600.137593 C38.1734603,591.82326 30.9354375,583.384969 23.665307,574.978816 C20.0417088,570.764261 16.3630686,566.595617 12.7899256,562.339744 L2.00857424,549.624921 C1.79757991,549.379301 1.82510091,549.007429 2.07049649,548.798537 C2.1691134,548.715899 2.28607764,548.669989 2.40304189,548.658511 L45.5605551,545.001766 C45.780723,544.981106 45.9779569,545.144087 45.9985976,545.366752 C46.0077713,545.472345 45.9710766,545.575643 45.9137412,545.65369 L0.105038479,603.975683 C0.0866911466,604.003229 0.0477030648,604.00782 0.024768899,603.987161 C-0.00275209989,603.966501 -0.00733893305,603.929773 0.0110083996,603.904523 L0.0110083996,603.904523 Z" id="Shape"></path>
                    <path d="M5.0129097,544.90838 L49.2492062,486.169149 L49.6243059,486.837902 L8.98618815,490.880505 L9.40296561,489.931755 L18.8452905,502.260884 L28.1787902,514.671005 L37.4937664,527.09501 C40.6195974,531.220918 43.6481802,535.420874 46.7230717,539.583807 C46.746226,539.611575 46.7369643,539.646286 46.71381,539.667112 C46.6860248,539.685624 46.6512934,539.680996 46.6281391,539.655542 C43.4166372,535.59674 40.1518804,531.574964 36.9866872,527.479138 L27.4309062,515.237941 L17.8936486,502.98286 L8.46058547,490.646789 C8.26145846,490.389932 8.30776706,490.019688 8.56477983,489.818368 C8.65508161,489.748947 8.7685377,489.707294 8.87273206,489.698038 L49.5409504,486.002539 C49.7724935,485.977085 49.9762513,486.146009 49.9970902,486.375097 C50.0109828,486.483856 49.9739359,486.590302 49.9114193,486.671292 L5.10321148,544.975487 C5.08468804,545.003255 5.04995658,545.007883 5.02217142,544.987057 C4.99438626,544.966231 4.99438626,544.936149 5.0129097,544.90838 L5.0129097,544.90838 Z" id="Shape"></path>
                    <path d="M10.0109235,486.904242 L48.2635499,436.160252 L48.6185627,436.827906 L12.9625361,439.889904 L13.3767177,438.936771 L21.5806988,449.522537 L29.6868238,460.186579 L37.7724673,470.866738 C40.4874047,474.409907 43.1113133,478.029051 45.7784605,481.611359 C45.8012177,481.636684 45.7921149,481.67352 45.7693576,481.69424 C45.7420489,481.712658 45.7079131,481.708054 45.6851559,481.682729 C42.8860167,478.206325 40.0368116,474.769059 37.2854626,471.255819 L28.9654196,460.762143 L20.659031,450.256956 L12.4573256,439.666586 C12.257062,439.413338 12.3025764,439.042675 12.5506302,438.840076 C12.6484863,438.766404 12.7599968,438.722661 12.8715072,438.713452 L48.5548425,436.001397 C48.7824148,435.982979 48.9826784,436.148741 48.9986084,436.378966 C49.0077113,436.48487 48.9712998,436.590774 48.9144067,436.66905 L10.1042281,486.975612 C10.0860223,487.003239 10.047335,487.007843 10.0245778,486.987123 C9.99726913,486.966403 9.99271769,486.929567 10.0109235,486.904242 L10.0109235,486.904242 Z" id="Shape"></path>
                    <path d="M13.5510012,433.90411 L49.275614,389.153723 L49.6433331,389.80916 L13.6696954,394.3509 L14.0187958,393.34111 L23.0186054,402.294893 C26.018542,405.28026 28.9556404,408.325843 31.9276489,411.339002 L40.8180737,420.401638 C43.7993916,423.405533 46.694598,426.492805 49.6316965,429.538388 C49.6549698,429.563864 49.6549698,429.598605 49.6316965,429.624081 C49.6084231,429.644925 49.573513,429.644925 49.545585,429.624081 C46.4874651,426.698932 43.3827984,423.817787 40.3642432,420.850949 L31.2597034,412.003703 C28.2318388,409.048445 25.1737189,406.123295 22.1737823,403.137929 L13.1786274,394.18183 C12.9412391,393.950227 12.9412391,393.575029 13.1739727,393.345742 C13.2693935,393.246153 13.397397,393.188252 13.5277278,393.174356 L49.5432577,389.00318 C49.766682,388.975388 49.9714876,389.132878 49.9970883,389.352901 C50.0110523,389.464071 49.9738149,389.577557 49.9063221,389.658618 L13.646422,433.975907 C13.6231486,434.003699 13.5882386,434.008331 13.5603105,433.985171 C13.5323825,433.964327 13.5323825,433.929586 13.5510012,433.90411 L13.5510012,433.90411 Z" id="Shape"></path>
                    <path d="M16.010036,389.905763 L51.2552222,341.172632 L51.6503064,341.834262 L17.1102996,347.347848 L17.4686318,346.372814 L25.5127299,355.953684 L33.453463,365.622772 L41.3850081,375.303467 C44.0449355,378.514115 46.6106858,381.803694 49.2315642,385.051486 C49.2545342,385.077023 49.2499402,385.114167 49.2223762,385.13506 C49.1948122,385.155954 49.1603571,385.153632 49.1419811,385.128096 C46.3970647,381.987093 43.6062083,378.887878 40.9049349,375.709731 L32.7528777,366.224043 L24.6100084,356.726747 L16.5705043,347.141234 C16.3591802,346.892832 16.3913382,346.516747 16.6371173,346.30549 C16.7221064,346.231202 16.8254714,346.184772 16.9334305,346.166199 L51.5239714,341.005484 C51.7490775,340.968339 51.9581046,341.123881 51.9948566,341.351388 C52.0132326,341.465142 51.9810746,341.581218 51.9190556,341.667114 L16.104213,389.975408 C16.085837,390.003266 16.051382,390.007909 16.023818,389.987015 C15.996254,389.966122 15.993957,389.933621 16.010036,389.905763 L16.010036,389.905763 Z" id="Shape"></path>
                    <path d="M21.0079881,297.93618 L51.4729077,254.123963 L51.782681,254.562758 L23.0925526,262.310168 L23.2742241,261.650814 C28.0768743,266.507746 32.8399294,271.404146 37.5680476,276.335371 C42.3078115,281.250345 47.0615501,286.158353 51.7384276,291.138333 C51.7524024,291.154585 51.7524024,291.180123 51.7524024,291.180123 C51.7197946,291.210305 51.6988325,291.210305 51.6848578,291.194053 C46.7890428,286.427667 41.9631014,281.589308 37.1325018,276.757915 C32.2879274,271.945095 27.4759607,267.09745 22.7082474,262.203371 C22.5545253,262.050141 22.5545253,261.797079 22.7129057,261.643849 C22.7618172,261.595094 22.8270327,261.560269 22.889919,261.544017 L51.6359462,254.010201 C51.7896683,253.968411 51.9503778,254.058956 51.9899728,254.209864 C52.0132641,254.295766 51.9946311,254.38399 51.9480486,254.451318 L21.0778618,297.982614 C21.0638871,298.001187 21.0359376,298.00583 21.0196338,297.9919 C20.9986717,297.980292 20.9940134,297.954754 21.0079881,297.93618 L21.0079881,297.93618 Z" id="Shape"></path>
                    <path d="M24.0081041,256.934923 L51.4704539,218.120052 L51.7654732,218.565491 L26.5401597,223.442477 L26.7492285,222.782314 C30.9724185,226.903196 35.1468258,231.072048 39.3026491,235.263744 C43.4677644,239.441733 47.6375257,243.617439 51.7399204,247.857104 L51.7399204,247.914212 L51.6981066,247.927918 C47.3703822,243.880133 43.1286083,239.777526 38.8752195,235.681771 C34.6148618,231.599722 30.3730879,227.490262 26.1847427,223.337399 C26.0314256,223.186635 26.0267796,222.937646 26.1800968,222.786882 C26.2381714,222.729775 26.317153,222.690942 26.3891656,222.677236 L51.6562928,218.005837 C51.80961,217.973857 51.9652501,218.07665 51.9954489,218.231983 C52.0093868,218.309649 51.9908029,218.3896 51.9466662,218.45356 L24.0708248,256.982894 C24.0568868,257.001168 24.033657,257.005737 24.0173961,256.992031 C23.9988122,256.976041 23.9941662,256.950913 24.0081041,256.934923 L24.0081041,256.934923 Z" id="Shape"></path>
                    <path d="M51.3383414,208.355134 L29.1816647,185.753184 C29.0972279,185.667579 29.0972279,185.528761 29.1816647,185.443156 C29.2090496,185.415392 29.2432808,185.396883 29.279794,185.389942 L55.5693104,178.011744 C55.7473124,177.963157 55.9344426,178.069585 55.9892124,178.252362 C56.0165973,178.354163 55.9892124,178.465217 55.9367247,178.546195 C51.208263,185.345983 46.4569807,192.129576 41.6509284,198.871523 C36.7923885,205.578766 32.0137211,212.341535 27.0707444,218.98631 C27.0707444,218.98631 27.0342311,219.009446 27.0182566,218.995564 C27.0022821,218.981683 27,218.958546 27,218.958546 C31.6097937,212.04539 36.3679223,205.268738 41.0484603,198.436559 C45.7814861,191.639084 50.5692817,184.883255 55.3821802,178.143621 L55.7473124,178.678072 L29.3916157,185.808711 L29.489745,185.445469 L51.3931112,208.299606 C51.4068037,208.315802 51.4068037,208.341252 51.3931112,208.35282 C51.3748546,208.371329 51.3520338,208.371329 51.3383414,208.355134 L51.3383414,208.355134 Z" id="Shape"></path>
                    <path d="M29.3561879,179.939935 L55.4961103,145.112133 L55.7631936,145.559234 L29.4497812,150.009505 L29.6780575,149.35729 C33.3692858,153.434208 37.0034449,157.566437 40.6239075,161.70558 C44.2535011,165.83781 47.8876603,169.967734 51.4533365,174.15758 C51.4715986,174.176017 51.4670331,174.201368 51.448771,174.212891 C51.448771,174.212891 51.4076812,174.224414 51.3962674,174.210587 C47.620577,170.214331 43.9065211,166.153546 40.1924652,162.09737 C36.4692783,158.050413 32.7552225,153.994237 29.1005184,149.882749 C28.9589871,149.723729 28.9658354,149.472522 29.1279116,149.32733 C29.1849807,149.274323 29.2580291,149.239753 29.3287948,149.22823 L55.6787313,145.003815 C55.8293937,144.978464 55.9732078,145.082173 55.9960354,145.234279 C56.009732,145.312637 55.9869044,145.3933 55.9435319,145.453221 L29.4246708,179.988333 C29.4246708,179.988333 29.3881466,180.009075 29.3721673,179.995247 C29.3561879,179.981419 29.3424913,179.958372 29.3561879,179.939935 L29.3561879,179.939935 Z" id="Shape"></path>
                    <path d="M29.0093358,145.930468 L57.5086202,112.096958 L57.7799334,112.559311 L31.1205628,119.018244 L31.2892785,118.324715 C35.3544165,121.883433 39.3579959,125.516875 43.3706952,129.143312 C47.3879543,132.765078 51.3983736,136.386845 55.363194,140.073994 C55.3768737,140.088005 55.3768737,140.113691 55.363194,140.130037 C55.3495144,140.144048 55.326715,140.146383 55.3107554,140.132372 C51.1703793,136.662389 47.082442,133.124686 42.9990645,129.586984 C38.9111272,126.053952 34.81407,122.53026 30.7808513,118.931845 C30.6166954,118.787068 30.5984559,118.534875 30.7352525,118.369082 C30.792251,118.303699 30.8697691,118.256996 30.9495671,118.238315 L57.6590964,112.008223 C57.8095726,111.970861 57.9577689,112.064266 57.991968,112.218384 C58.0147675,112.309453 57.9874081,112.405193 57.9304096,112.470576 L29.0708943,145.986511 C29.0572146,146.002857 29.0298553,146.005192 29.0184556,145.988846 C28.9956561,145.974835 28.9956561,145.949149 29.0093358,145.930468 L29.0093358,145.930468 Z" id="Shape"></path>
                    <path d="M33.1629964,112.960214 L54.7619914,83.0530895 L54.8860717,83.2730809 L33.2081165,86.7414555 L33.3051247,86.4255105 C40.5807419,93.7133097 47.6916707,101.178974 54.8815597,108.555706 L54.8815597,108.58379 L54.8544877,108.58379 C47.5878945,101.28663 40.2378291,94.0784018 33.0524521,86.6923085 C32.982516,86.6220985 32.982516,86.5027415 33.0524521,86.4301911 C33.0795242,86.3997668 33.1133643,86.3810441 33.1539724,86.3763635 L54.8454636,83.0016022 C54.9199118,82.9899005 54.985336,83.0437282 54.998872,83.1162786 C55.003384,83.1584046 54.99436,83.1935096 54.9717999,83.2239339 L33.1923245,112.988298 L33.1742764,113 C33.1584844,112.981277 33.1584844,112.969576 33.1629964,112.960214 L33.1629964,112.960214 Z" id="Shape"></path>
                    <path d="M36.1656549,79.967308 L57.7640409,53.0500936 L57.8848806,53.2742675 L36.2066947,56.2515772 L36.3184145,55.9410029 C42.8027183,63.214979 49.1023425,70.6594207 55.4977265,78.0127918 L55.4977265,78.0431486 L55.4703666,78.0408135 C48.9951828,70.7551617 42.4310792,63.5582453 36.0448152,56.1931986 C35.9786953,56.1161388 35.9878153,55.9970464 36.0584951,55.9293272 C36.090415,55.9036406 36.124615,55.8872946 36.1610949,55.8826243 L57.8484007,53.0010556 C57.9236405,52.991715 57.9897603,53.0454233 57.9988803,53.120148 C58.0034403,53.1598454 57.9943203,53.1972078 57.9669604,53.2252295 L36.1952948,79.9976649 L36.1679348,80 L36.1656549,79.967308 L36.1656549,79.967308 Z" id="Shape"></path>
                    <path d="M37.6053017,50.9580193 L57.7550421,25.0489487 L57.8894952,25.2728456 L36.2220295,29.2283577 L36.2972321,28.8855155 C42.732752,33.5920152 49.1249734,38.3568213 55.4898485,43.1589436 L55.4944062,43.1869307 L55.4670598,43.1915952 C48.9722894,38.5737214 42.5048653,33.9115347 36.0784609,29.1980383 C35.9941428,29.1373995 35.9759119,29.016122 36.0328836,28.9298284 C36.0647877,28.8855155 36.1080862,28.8621929 36.1582212,28.8528639 L57.8393602,25.0023035 C57.9145628,24.9883099 57.9852076,25.0396196 57.9988808,25.1142519 C58.0034386,25.1562326 57.9943231,25.195881 57.9669767,25.2262004 L37.6349269,50.990671 L37.6121383,51 C37.6144171,50.9953355 37.5961862,50.9673484 37.6053017,50.9580193 L37.6053017,50.9580193 Z" id="Shape"></path>
                    <path d="M38,22.9675359 L61.7604144,2.03514134 L61.8917638,2.2832599 L41.6800875,7.66302675 L41.7561319,7.32447246 C46.5446239,11.55872 51.3515509,15.7720977 56.091651,20.0596792 L56.091651,20.0898244 L56.0639985,20.0921433 C51.1718096,15.9807956 46.3418388,11.7929254 41.5003462,7.62360605 C41.419693,7.55404009 41.4104755,7.42882138 41.4819112,7.34766111 C41.5095637,7.315197 41.5441293,7.29432721 41.5809993,7.28505175 L61.8203282,2.0049961 C61.8963726,1.98412631 61.972417,2.03050361 61.9954607,2.10934503 C62.009287,2.16267892 61.990852,2.22065055 61.9493732,2.25311466 L38.0276525,23 L38,22.9976811 L38,22.9675359 L38,22.9675359 Z" id="Shape"></path>
                    <path d="M18.0077712,340.938049 L50.5002759,300.103902 L50.7563187,300.557157 L21.8846663,304.986694 L22.1021893,304.322836 C26.9352795,309.14382 31.727584,314.00372 36.4813689,318.902535 C41.2555465,323.785327 46.0365218,328.658962 50.7449893,333.603561 C50.7585845,333.617296 50.7585845,333.644766 50.7449893,333.656212 C50.7268624,333.672236 50.7042038,333.672236 50.6928744,333.656212 C45.7714156,328.926794 40.9224644,324.121834 36.0667156,319.326031 C31.190574,314.548541 26.3574839,309.732135 21.5606476,304.876814 C21.4065688,304.725729 21.4065688,304.478499 21.5561158,304.325125 C21.6172942,304.263317 21.6965995,304.224401 21.7781706,304.212956 L50.6815451,300.003179 C50.8310922,299.980287 50.9738417,300.0833 50.9965003,300.238963 C51.0100955,300.319084 50.9829052,300.399205 50.935322,300.458723 L18.0757471,340.988411 C18.0757471,340.988411 18.0349616,341.009014 18.0191005,340.995279 C17.9987077,340.979254 17.994176,340.954074 18.0077712,340.938049 L18.0077712,340.938049 Z" id="Shape"></path>
                </g>
                <path d="M90.0103522,828.117837 L117.353278,791.840976 L117.485437,792.375238 L92.5144105,780.95999 L93.1937523,780.310585 L99.5025881,795.13636 L105.711725,810.003586 C109.706626,819.974945 113.849915,829.888732 117.694108,839.919965 C117.70802,839.949902 117.689471,839.984445 117.657011,839.995959 C117.629188,840.007473 117.594409,839.993656 117.585135,839.963719 C113.124202,830.183498 108.962364,820.281225 104.656775,810.441129 L98.4082219,795.587719 L92.2640047,780.695161 C92.1550318,780.439545 92.273279,780.147082 92.5306406,780.038848 C92.6674363,779.981277 92.8204621,779.990488 92.9433465,780.048059 L117.791488,791.730439 C117.972337,791.811039 118.04885,792.020598 117.9677,792.197918 L117.925965,792.267004 L90.1077323,828.186923 C90.0891837,828.214557 90.0544051,828.219163 90.0265822,828.198437 C89.9987594,828.177712 89.9918036,828.145472 90.0103522,828.117837 L90.0103522,828.117837 Z" id="Shape" fill="#666666" sketch:type="MSShapeGroup"></path>
                <path d="M91.0108059,776.922291 L116.384511,743.354623 L116.485817,743.887002 L93.8721296,730.96176 L94.5745159,730.313646 L100.281405,743.889316 C102.14543,748.430743 104.07249,752.944393 105.886988,757.506652 C109.497973,766.642743 113.239531,775.718651 116.708689,784.919554 C116.722197,784.949645 116.704187,784.98205 116.672669,784.995938 C116.645655,785.007512 116.616388,784.993624 116.602881,784.963533 C112.552904,776.021876 108.784331,766.955226 104.880684,757.948758 C102.942368,753.439737 101.107609,748.882108 99.2165689,744.352255 L93.6537595,730.714087 C93.5434488,730.454842 93.658262,730.153932 93.9126519,730.040512 C94.0567311,729.975701 94.225574,729.991903 94.3561458,730.065974 L116.823502,743.262035 C116.990094,743.356937 117.048626,743.574518 116.956325,743.745806 L116.924808,743.794414 L91.1031067,776.996362 C91.0850968,777.024138 91.0468258,777.028767 91.0243134,777.00562 C90.9972985,776.987103 90.992796,776.947753 91.0108059,776.922291 L91.0108059,776.922291 Z" id="Shape" fill="#666666" sketch:type="MSShapeGroup"></path>
                <path d="M92.0164008,724.576635 L116.4283,698.885818 L116.494711,699.415573 L94.9270503,686.92682 L95.6209345,686.306448 C99.2895894,695.012562 102.903283,703.739586 106.450566,712.494492 C109.871896,721.302839 113.451239,730.048451 116.719135,738.919532 C116.732876,738.952061 116.714555,738.98459 116.682495,738.996207 C116.655014,739.007825 116.620663,738.99156 116.611503,738.963678 C112.716134,730.355152 109.12763,721.614186 105.385694,712.942926 C101.76742,704.215901 98.2201376,695.463318 94.718656,686.685177 C94.6156039,686.43424 94.7323963,686.143804 94.9774313,686.036924 C95.1239943,685.976513 95.2911677,685.992777 95.4148303,686.067129 L116.831348,698.82773 C116.991651,698.92067 117.046612,699.125137 116.9573,699.285458 C116.94356,699.311016 116.92066,699.336574 116.904629,699.355162 L92.1034226,724.655633 C92.0805221,724.681192 92.0461714,724.681192 92.023271,724.655633 C91.9935004,724.634722 91.9935004,724.597546 92.0164008,724.576635 L92.0164008,724.576635 Z" id="Shape" fill="#666666" sketch:type="MSShapeGroup"></path>
            </g>
        </g>
    </g>
</svg>