<?xml version="1.0" encoding="utf-8"?>
<!-- Generator: Adobe Illustrator 19.1.0, SVG Export Plug-In . SVG Version: 6.00 Build 0)  -->
<!DOCTYPE svg PUBLIC "-//W3C//DTD SVG 1.1//EN" "http://www.w3.org/Graphics/SVG/1.1/DTD/svg11.dtd">
<svg version="1.1" id="Layer_1" xmlns="http://www.w3.org/2000/svg" xmlns:xlink="http://www.w3.org/1999/xlink" x="0px" y="0px"
	 viewBox="0 0 100 391.3" enable-background="new 0 0 100 391.3" xml:space="preserve">
<g>
	<path fill="#666666" d="M58.9,386.5l-11.5-27.2c0-0.1,0-0.2,0.1-0.3c0,0,0.1,0,0.1,0l13,3.8c0.1,0,0.2,0.2,0.2,0.3c0,0,0,0.1,0,0.1
		l-3.2,4.6l-3.3,4.6l-3.3,4.6c-1.1,1.5-2.2,3-3.3,4.5c0,0,0,0,0,0c0,0,0,0,0,0c1.1-1.6,2.1-3.1,3.1-4.7l3.2-4.6l3.2-4.6l3.2-4.6
		l0.1,0.4l-12.9-3.9l0.2-0.3L58.9,386.5C58.9,386.5,58.9,386.5,58.9,386.5C58.9,386.6,58.9,386.6,58.9,386.5z"/>
</g>
<g>
	<path fill="#666666" d="M46.7,353.4l12.6-15.2l0.1,0.2l-11.2-3l0.3-0.3l2.8,6.3l2.8,6.4c1.8,4.3,3.6,8.5,5.4,12.8c0,0,0,0,0,0
		c0,0,0,0,0,0c-2-4.2-3.9-8.4-5.8-12.6l-2.8-6.3l-2.8-6.4c0-0.1,0-0.2,0.1-0.3c0,0,0.1,0,0.1,0l11.1,3.1c0.1,0,0.1,0.1,0.1,0.2
		c0,0,0,0,0,0.1L46.7,353.4C46.7,353.4,46.7,353.4,46.7,353.4C46.7,353.4,46.6,353.4,46.7,353.4z"/>
</g>
<g>
	<path fill="#666666" d="M47.5,331.3l11.8-15.8l0.1,0.2l-10.8-5l0.3-0.3l2.7,6.4l2.7,6.5c1.7,4.3,3.5,8.6,5.2,13c0,0,0,0,0,0
		c0,0,0,0,0,0c-1.9-4.2-3.7-8.5-5.6-12.8l-2.7-6.4l-2.7-6.5c0-0.1,0-0.2,0.1-0.3c0.1,0,0.1,0,0.2,0l10.7,5.1c0.1,0,0.1,0.1,0.1,0.2
		l0,0L47.5,331.3C47.5,331.4,47.5,331.4,47.5,331.3C47.5,331.4,47.5,331.3,47.5,331.3z"/>
</g>
<circle fill="none" stroke="#48C7ED" stroke-width="0.6887" stroke-miterlimit="10" cx="47.9" cy="53.8" r="10.5"/>
<circle fill="none" stroke="#7AC143" stroke-width="0.6887" stroke-miterlimit="10" cx="47.9" cy="53.8" r="27.2"/>
<circle fill="none" stroke="#FEE000" stroke-width="0.6887" stroke-miterlimit="10" cx="47.9" cy="53.8" r="39.4"/>
<g>
	<g>
		
			<line fill="none" stroke="#999999" stroke-width="0.6887" stroke-linecap="round" stroke-miterlimit="10" x1="47.2" y1="107.3" x2="47.9" y2="55.9"/>
		<g>
			<g>
				<circle fill="#FFFFFF" cx="47.9" cy="56" r="1.9"/>
				<path fill="#999999" d="M50,56c0,1.2-1,2.1-2.2,2.1c-1.2,0-2.1-1-2.1-2.2c0-1.2,1-2.1,2.2-2.1C49.1,53.8,50.1,54.8,50,56
					C50,57.2,50.1,54.8,50,56z M46.3,55.9c0,0.9,0.7,1.6,1.6,1.7c0.9,0,1.6-0.7,1.7-1.6c0-0.9-0.7-1.6-1.6-1.7
					C47,54.3,46.3,55,46.3,55.9C46.3,56.8,46.3,55,46.3,55.9z"/>
			</g>
		</g>
	</g>
</g>
<polygon id="tower_side_9_" fill="#EEEEEE" stroke="#7E8580" stroke-width="0.4" stroke-miterlimit="10" points="46.2,389.2 
	50.6,113.9 36.1,118.5 18.4,389.2 "/>
<polygon id="tower_side_2_9_" fill="#9D9D9D" stroke="#7E8580" stroke-width="0.4" stroke-miterlimit="10" points="61.2,389.2 
	59.4,121.6 50.8,113.9 46.2,389.2 "/>
<polygon fill="#EEEEEE" points="44.5,115.6 47.2,103.8 47.2,103.8 49,114.2 "/>
<polygon fill="#9D9D9D" points="50.9,113.7 49,114.2 47.2,103.8 "/>
<g>
	<path fill="#666666" d="M48,309.1l11.3-14.5l0,0.2l-10-5.6l0.3-0.3l2.5,5.9c0.8,2,1.7,3.9,2.5,5.9c1.6,3.9,3.3,7.9,4.8,11.8
		c0,0,0,0,0,0c0,0,0,0,0,0c-1.8-3.9-3.5-7.8-5.2-11.7c-0.9-1.9-1.7-3.9-2.5-5.9l-2.5-5.9c0-0.1,0-0.2,0.1-0.3c0.1,0,0.1,0,0.2,0
		l10,5.7c0.1,0,0.1,0.1,0.1,0.2l0,0L48,309.1C48,309.1,48,309.1,48,309.1C48,309.1,48,309.1,48,309.1z"/>
</g>
<g>
	<path fill="#666666" d="M48.6,286.4l10.7-11.1l0,0.2l-9.4-5.4l0.3-0.3c1.6,3.7,3.2,7.5,4.7,11.3c1.5,3.8,3.1,7.6,4.5,11.4
		c0,0,0,0,0,0c0,0,0,0,0,0c-1.7-3.7-3.3-7.5-4.9-11.2c-1.6-3.8-3.1-7.5-4.7-11.3c0-0.1,0-0.2,0.1-0.3c0.1,0,0.1,0,0.2,0l9.4,5.5
		c0.1,0,0.1,0.1,0.1,0.2c0,0,0,0,0,0L48.6,286.4C48.7,286.4,48.7,286.4,48.6,286.4C48.6,286.4,48.6,286.4,48.6,286.4z"/>
</g>
<g>
	<path fill="#666666" d="M49.6,267l8.8-11.4l0,0.1l-8.5-4.4l0.2-0.2l4.9,11.2c1.6,3.8,3.2,7.5,4.8,11.2c0,0,0,0,0,0c0,0,0,0,0,0
		c-1.7-3.7-3.4-7.4-5.1-11.1l-4.9-11.2c0-0.1,0-0.1,0.1-0.2c0,0,0.1,0,0.1,0l8.4,4.4c0,0,0.1,0.1,0,0.1l0,0L49.6,267
		C49.6,267,49.6,267,49.6,267C49.6,267,49.6,267,49.6,267z"/>
</g>
<g>
	<path fill="#666666" d="M49.6,248.8l9.2-10.4l0,0.1l-8.2-5.3l0.2-0.2c1.4,3.3,2.8,6.6,4.1,10c1.3,3.3,2.7,6.7,3.9,10c0,0,0,0,0,0
		c0,0,0,0,0,0c-1.5-3.3-2.8-6.6-4.2-9.9c-1.4-3.3-2.7-6.7-4.1-10c0-0.1,0-0.2,0.1-0.2c0,0,0.1,0,0.1,0l8.1,5.4c0,0,0.1,0.1,0,0.1
		l0,0L49.6,248.8L49.6,248.8C49.6,248.8,49.6,248.8,49.6,248.8z"/>
</g>
<g>
	<path fill="#666666" d="M50.7,230.1l8.1-9.2l0,0.1l-8.2-4.3l0.2-0.2l4.1,9.5c1.3,3.2,2.7,6.4,3.9,9.6c0,0,0,0,0,0c0,0,0,0,0,0
		c-1.5-3.1-2.8-6.3-4.2-9.5l-4-9.5c0-0.1,0-0.2,0.1-0.2c0,0,0.1,0,0.1,0l8.1,4.4c0,0,0.1,0.1,0,0.1l0,0L50.7,230.1
		C50.8,230.1,50.7,230.1,50.7,230.1C50.7,230.1,50.7,230.1,50.7,230.1z"/>
</g>
<g>
	<path fill="#666666" d="M50.7,214.1l7.1-8.8l0,0.1l-6.6-3.8l0.2-0.2c1.1,2.6,2.2,5.3,3.3,7.9c1.1,2.7,2.1,5.3,3.2,8c0,0,0,0,0,0
		c0,0,0,0,0,0c-1.2-2.6-2.3-5.3-3.4-7.9c-1.1-2.6-2.2-5.3-3.3-8c0-0.1,0-0.2,0.1-0.2c0,0,0.1,0,0.1,0l6.6,3.9c0,0,0.1,0.1,0,0.1l0,0
		L50.7,214.1C50.8,214.1,50.7,214.1,50.7,214.1C50.7,214.1,50.7,214.1,50.7,214.1z"/>
</g>
<g>
	<path fill="#666666" d="M51.4,198.9l6.5-10l0,0.2l-6-2.4l0.2-0.2l1.4,3.7c0.5,1.2,0.9,2.5,1.4,3.7c0.9,2.5,1.8,5,2.6,7.5
		c0,0,0,0,0,0c0,0,0,0,0,0c-1-2.4-1.9-4.9-2.9-7.4c-0.5-1.2-0.9-2.5-1.4-3.7l-1.4-3.7c0-0.1,0-0.2,0.1-0.2c0,0,0.1,0,0.1,0l5.9,2.4
		c0.1,0,0.1,0.1,0.1,0.1l0,0L51.4,198.9C51.4,199,51.4,199,51.4,198.9C51.4,199,51.4,198.9,51.4,198.9z"/>
</g>
<g>
	<path fill="#666666" d="M52.2,183.9l5.6-10l0,0.1l-5.7-2.5l0.2-0.2c1,2.5,1.9,5.1,2.9,7.6c0.9,2.6,1.9,5.1,2.7,7.7c0,0,0,0,0,0l0,0
		c-1-2.5-2-5.1-3-7.6c-1-2.5-1.9-5.1-2.8-7.6c0-0.1,0-0.2,0.1-0.2c0,0,0.1,0,0.1,0l5.7,2.6c0.1,0,0.1,0.1,0.1,0.1l0,0L52.2,183.9
		C52.3,183.9,52.2,183.9,52.2,183.9C52.2,183.9,52.2,183.9,52.2,183.9z"/>
</g>
<g>
	<path fill="#666666" d="M51.4,169.5l6.6-6.4l0,0.1l-5.7-3.8l0.1-0.1l2.9,6l2.8,6.1v0c0,0,0,0,0,0l-2.9-6l-2.9-6c0,0,0-0.1,0-0.1
		c0,0,0.1,0,0.1,0l5.7,3.8c0,0,0,0,0,0.1l0,0L51.4,169.5C51.4,169.5,51.4,169.5,51.4,169.5C51.4,169.5,51.4,169.5,51.4,169.5z"/>
</g>
<g>
	<path fill="#666666" d="M51.4,156.7l6.6-7.2l0,0.1l-5.6-3.9l0.1-0.1l2.5,6.8l2.5,6.9c0,0,0,0,0,0l0,0l-2.6-6.8l-2.5-6.8
		c0,0,0-0.1,0-0.1c0,0,0,0,0.1,0l5.6,3.9c0,0,0,0,0,0.1l0,0L51.4,156.7C51.4,156.7,51.4,156.7,51.4,156.7L51.4,156.7z"/>
</g>
<g>
	<path fill="#666666" d="M52.4,143.8l5.6-5.8l0,0.1l-5.6-3.8l0.1-0.1l2.8,6.3l2.7,6.3v0c0,0,0,0,0,0l-2.9-6.3l-2.8-6.3
		c0,0,0-0.1,0-0.1c0,0,0,0,0.1,0L58,138c0,0,0,0,0,0.1l0,0L52.4,143.8L52.4,143.8C52.4,143.8,52.4,143.8,52.4,143.8z"/>
</g>
<g>
	<path fill="#666666" d="M52.4,131.8l5.6-5.6l0,0.1l-5.6-2.5l0.1-0.1l2.8,5.6L58,135l0,0l0,0l-2.9-5.6l-2.8-5.6c0,0,0-0.1,0-0.1
		c0,0,0,0,0.1,0l5.6,2.5c0,0,0,0,0,0.1l0,0L52.4,131.8L52.4,131.8L52.4,131.8z"/>
</g>
<g>
	<g>
		<path fill="#999999" d="M22.1,382.9l19.7-25.6l0.2,0.3l-18.8,1.8l0.2-0.4l4.7,5.5c1.6,1.8,3.1,3.7,4.7,5.6
			c3.1,3.7,6.2,7.4,9.3,11.2c0,0,0,0,0,0c0,0,0,0,0,0c-3.2-3.6-6.4-7.3-9.5-11c-1.6-1.8-3.2-3.7-4.7-5.5l-4.7-5.5
			c-0.1-0.1-0.1-0.3,0-0.4c0,0,0.1-0.1,0.1-0.1l18.8-1.6c0.1,0,0.2,0.1,0.2,0.2c0,0,0,0.1,0,0.1L22.1,382.9
			C22.1,382.9,22.1,382.9,22.1,382.9C22.1,382.9,22.1,382.9,22.1,382.9z"/>
	</g>
	<g>
		<path fill="#999999" d="M24,357.4L43.1,332l0.2,0.3L25.7,334l0.2-0.4l4.1,5.3l4,5.4l4,5.4c1.3,1.8,2.7,3.6,4,5.4c0,0,0,0,0,0
			c0,0,0,0,0,0c-1.4-1.8-2.8-3.5-4.2-5.3l-4.1-5.3l-4.1-5.3l-4.1-5.3c-0.1-0.1-0.1-0.3,0-0.4c0,0,0.1,0,0.1-0.1l17.6-1.6
			c0.1,0,0.2,0.1,0.2,0.2c0,0,0,0.1,0,0.1L24,357.4C24,357.4,24,357.4,24,357.4C24,357.4,24,357.4,24,357.4z"/>
	</g>
	<g>
		<path fill="#999999" d="M26.3,332.1l16.8-22l0.2,0.3l-15.7,1.3l0.2-0.4l3.6,4.6l3.6,4.6l3.6,4.6c1.2,1.5,2.3,3.1,3.5,4.7
			c0,0,0,0,0,0c0,0,0,0,0,0c-1.2-1.5-2.5-3-3.7-4.5l-3.7-4.6l-3.7-4.6l-3.6-4.6c-0.1-0.1-0.1-0.3,0-0.4c0,0,0.1-0.1,0.1-0.1
			l15.7-1.2c0.1,0,0.2,0.1,0.2,0.2c0,0,0,0.1,0,0.1L26.3,332.1C26.3,332.1,26.3,332.1,26.3,332.1C26.3,332.1,26.3,332.1,26.3,332.1z
			"/>
	</g>
	<g>
		<path fill="#999999" d="M27.7,309.1l15.3-19.3l0.2,0.3l-15.5,2l0.2-0.4l3.9,3.9c1.3,1.3,2.6,2.6,3.8,3.9l3.8,3.9
			c1.3,1.3,2.5,2.6,3.8,3.9c0,0,0,0,0,0c0,0,0,0,0,0c-1.3-1.3-2.6-2.5-3.9-3.8l-3.9-3.8c-1.3-1.3-2.6-2.5-3.9-3.8l-3.9-3.9
			c-0.1-0.1-0.1-0.3,0-0.4c0,0,0.1-0.1,0.2-0.1l15.5-1.8c0.1,0,0.2,0.1,0.2,0.2c0,0,0,0.1,0,0.1L27.7,309.1
			C27.8,309.1,27.8,309.1,27.7,309.1C27.7,309.1,27.7,309.1,27.7,309.1z"/>
	</g>
	<g>
		<path fill="#999999" d="M28.8,289.8l15.3-21l0.2,0.3l-15,2.4l0.2-0.4l3.5,4.1l3.5,4.2l3.5,4.2c1.2,1.4,2.3,2.8,3.4,4.2
			c0,0,0,0,0,0c0,0,0,0,0,0c-1.2-1.4-2.4-2.7-3.6-4.1l-3.5-4.1l-3.5-4.1l-3.5-4.1c-0.1-0.1-0.1-0.3,0-0.4c0,0,0.1-0.1,0.1-0.1
			l15.1-2.2c0.1,0,0.2,0.1,0.2,0.1c0,0,0,0.1,0,0.1L28.8,289.8C28.8,289.9,28.8,289.9,28.8,289.8C28.8,289.9,28.8,289.9,28.8,289.8z
			"/>
	</g>
	<g>
		<path fill="#999999" d="M31.1,250.1l13.1-18.9l0.1,0.2L32,234.8l0.1-0.3c2.1,2.1,4.1,4.2,6.1,6.3c2,2.1,4.1,4.2,6.1,6.4
			c0,0,0,0,0,0c0,0,0,0,0,0c-2.1-2.1-4.2-4.1-6.2-6.2c-2.1-2.1-4.1-4.2-6.2-6.3c-0.1-0.1-0.1-0.2,0-0.2c0,0,0,0,0.1,0l12.3-3.2
			c0.1,0,0.1,0,0.2,0.1c0,0,0,0.1,0,0.1L31.1,250.1C31.1,250.2,31.1,250.2,31.1,250.1C31.1,250.2,31.1,250.1,31.1,250.1z"/>
	</g>
	<g>
		<path fill="#999999" d="M32.3,232.6l11.8-17l0.1,0.2l-10.9,2.1l0.1-0.3c1.8,1.8,3.6,3.6,5.4,5.5c1.8,1.8,3.6,3.7,5.4,5.5v0l0,0
			c-1.9-1.8-3.7-3.6-5.5-5.4c-1.8-1.8-3.7-3.6-5.5-5.4c-0.1-0.1-0.1-0.2,0-0.2c0,0,0.1,0,0.1,0l10.9-2c0.1,0,0.1,0,0.1,0.1
			c0,0,0,0.1,0,0.1L32.3,232.6C32.4,232.6,32.4,232.6,32.3,232.6C32.3,232.6,32.3,232.6,32.3,232.6z"/>
	</g>
	<g>
		<path fill="#999999" d="M44.3,211.1l-9.7-9.8c0,0,0-0.1,0-0.1c0,0,0,0,0,0l11.5-3.2c0.1,0,0.2,0,0.2,0.1c0,0,0,0.1,0,0.1
			c-2.1,2.9-4.2,5.9-6.3,8.8c-2.1,2.9-4.2,5.8-6.4,8.7c0,0,0,0,0,0c0,0,0,0,0,0c2-3,4.1-5.9,6.2-8.9c2.1-2.9,4.2-5.9,6.3-8.8
			l0.2,0.2l-11.5,3.1l0-0.2L44.3,211.1C44.3,211.1,44.3,211.1,44.3,211.1C44.3,211.1,44.3,211.1,44.3,211.1z"/>
	</g>
	<g>
		<path fill="#999999" d="M34.6,198.9l11.5-15.1l0.1,0.2l-11.5,1.9l0.1-0.3c1.6,1.8,3.2,3.6,4.8,5.4c1.6,1.8,3.2,3.6,4.7,5.4
			c0,0,0,0,0,0c0,0,0,0,0,0c-1.7-1.7-3.3-3.5-4.9-5.3c-1.6-1.8-3.3-3.5-4.9-5.3c-0.1-0.1-0.1-0.2,0-0.2c0,0,0.1,0,0.1,0l11.5-1.8
			c0.1,0,0.1,0,0.1,0.1c0,0,0,0.1,0,0.1L34.6,198.9C34.6,199,34.6,199,34.6,198.9C34.6,199,34.6,198.9,34.6,198.9z"/>
	</g>
	<g>
		<path fill="#999999" d="M34.6,183.9l12.5-14.5l0.1,0.2l-11.7,2.8l0.1-0.3c1.8,1.5,3.5,3.1,5.3,4.6c1.8,1.6,3.5,3.1,5.3,4.7
			c0,0,0,0,0,0c0,0,0,0,0,0c-1.8-1.5-3.6-3-5.4-4.5c-1.8-1.5-3.6-3-5.4-4.6c-0.1-0.1-0.1-0.2,0-0.2c0,0,0.1,0,0.1-0.1l11.7-2.7
			c0.1,0,0.1,0,0.1,0.1c0,0,0,0.1,0,0.1L34.6,183.9C34.6,183.9,34.6,183.9,34.6,183.9C34.6,183.9,34.6,183.9,34.6,183.9z"/>
	</g>
	<g>
		<path fill="#999999" d="M36.5,169.5l9.6-12.8l0.1,0.1l-9.6,1.5l0-0.1c3.2,3.1,6.4,6.3,9.6,9.5v0h0c-3.2-3.1-6.5-6.2-9.7-9.4
			c0,0,0-0.1,0-0.1c0,0,0,0,0,0l9.6-1.4c0,0,0.1,0,0.1,0c0,0,0,0,0,0L36.5,169.5L36.5,169.5C36.5,169.5,36.5,169.5,36.5,169.5z"/>
	</g>
	<g>
		<path fill="#999999" d="M37.7,155.3l9.5-11.5l0.1,0.1l-9.5,1.3l0-0.1c2.8,3.1,5.6,6.3,8.4,9.5v0l0,0c-2.8-3.1-5.7-6.2-8.5-9.4
			c0,0,0-0.1,0-0.1c0,0,0,0,0,0l9.5-1.2c0,0,0.1,0,0.1,0.1c0,0,0,0,0,0L37.7,155.3L37.7,155.3L37.7,155.3z"/>
	</g>
	<g>
		<path fill="#999999" d="M38.3,142.9l8.8-11.1l0.1,0.1l-9.5,1.7l0-0.1c2.8,2,5.6,4.1,8.4,6.1l0,0l0,0c-2.8-2-5.7-4-8.5-6
			c0,0,0-0.1,0-0.1c0,0,0,0,0.1,0l9.5-1.7c0,0,0.1,0,0.1,0c0,0,0,0,0,0L38.3,142.9L38.3,142.9C38.3,142.9,38.3,142.9,38.3,142.9z"/>
	</g>
	<g>
		<path fill="#999999" d="M38.3,130.8l10.3-9l0.1,0.1l-8.8,2.3l0-0.1c2.1,1.8,4.2,3.6,6.2,5.5v0l0,0c-2.1-1.8-4.2-3.6-6.3-5.4
			c0,0,0-0.1,0-0.1c0,0,0,0,0,0l8.8-2.3c0,0,0.1,0,0.1,0c0,0,0,0,0,0.1L38.3,130.8L38.3,130.8L38.3,130.8z"/>
	</g>
	<g>
		<path fill="#999999" d="M29.8,269l14.3-17.8l0.1,0.2l-12.7,1.9l0.1-0.3c2.1,2.1,4.2,4.2,6.3,6.4c2.1,2.1,4.2,4.3,6.3,6.4
			c0,0,0,0,0,0c0,0,0,0,0,0c-2.2-2.1-4.3-4.2-6.5-6.3c-2.2-2.1-4.3-4.2-6.4-6.3c-0.1-0.1-0.1-0.2,0-0.2c0,0,0.1,0,0.1,0l12.8-1.8
			c0.1,0,0.1,0,0.1,0.1c0,0,0,0.1,0,0.1L29.8,269C29.9,269,29.8,269,29.8,269C29.8,269,29.8,269,29.8,269z"/>
	</g>
</g>
<g>
	<path fill="#666666" d="M47.4,373.4l11.8-15.8l0.1,0.2l-10.8-5l0.3-0.3l2.7,6.4l2.7,6.5c1.7,4.3,3.5,8.6,5.2,13c0,0,0,0,0,0
		c0,0,0,0,0,0c-1.9-4.2-3.7-8.5-5.6-12.8l-2.7-6.5l-2.7-6.5c0-0.1,0-0.2,0.1-0.3c0.1,0,0.1,0,0.2,0l10.7,5.1c0.1,0,0.1,0.1,0.1,0.2
		l0,0L47.4,373.4C47.4,373.4,47.4,373.4,47.4,373.4C47.4,373.4,47.4,373.4,47.4,373.4z"/>
</g>
<g>
	<path fill="#666666" d="M47.9,351.1l11.3-14.5l0,0.2l-10-5.6l0.3-0.3l2.5,5.9c0.8,2,1.7,3.9,2.5,5.9c1.6,3.9,3.3,7.9,4.8,11.8
		c0,0,0,0,0,0c0,0,0,0,0,0c-1.8-3.9-3.5-7.8-5.2-11.7c-0.9-1.9-1.7-3.9-2.5-5.9l-2.5-5.9c0-0.1,0-0.2,0.1-0.3c0.1,0,0.1,0,0.2,0
		l10,5.7c0.1,0,0.1,0.1,0.1,0.2l0,0L47.9,351.1C47.9,351.2,47.9,351.2,47.9,351.1C47.9,351.2,47.9,351.1,47.9,351.1z"/>
</g>
<g>
	<path fill="#666666" d="M48.5,328.5l10.7-11.1l0,0.2l-9.4-5.4l0.3-0.3c1.6,3.7,3.2,7.5,4.7,11.3c1.5,3.8,3.1,7.6,4.5,11.4
		c0,0,0,0,0,0c0,0,0,0,0,0c-1.7-3.7-3.3-7.5-4.9-11.2c-1.6-3.8-3.1-7.5-4.7-11.3c0-0.1,0-0.2,0.1-0.3c0.1,0,0.1,0,0.2,0l9.4,5.5
		c0.1,0,0.1,0.1,0.1,0.2c0,0,0,0,0,0L48.5,328.5C48.6,328.5,48.5,328.5,48.5,328.5C48.5,328.5,48.5,328.5,48.5,328.5z"/>
</g>
</svg>
