<?xml version="1.0" encoding="UTF-8" standalone="no"?>
<svg width="80px" height="376px" viewBox="0 0 80 376" version="1.1" xmlns="http://www.w3.org/2000/svg" xmlns:xlink="http://www.w3.org/1999/xlink" xmlns:sketch="http://www.bohemiancoding.com/sketch/ns">
    <!-- Generator: Sketch 3.4 (15588) - http://www.bohemiancoding.com/sketch -->
    <title>tower with flat base</title>
    <desc>Created with Sketch.</desc>
    <defs></defs>
    <g id="Page-1" stroke="none" stroke-width="1" fill="none" fill-rule="evenodd" sketch:type="MSPage">
        <g id="tower-with-flat-base" sketch:type="MSLayerGroup">
            <path d="M50.9,372.5 L39.4,345.3 C39.4,345.2 39.4,345.1 39.5,345 L39.6,345 L52.6,348.8 C52.7,348.8 52.8,349 52.8,349.1 L52.8,349.2 L49.6,353.8 L46.3,358.4 L43,363 C41.9,364.5 40.8,366 39.7,367.5 L39.7,367.5 L39.7,367.5 C40.8,365.9 41.8,364.4 42.8,362.8 L46,358.2 L49.2,353.6 L52.4,349 L52.5,349.4 L39.6,345.5 L39.8,345.2 L50.9,372.5 L50.9,372.5 C50.9,372.6 50.9,372.6 50.9,372.5 L50.9,372.5 Z" id="Shape" fill="#666666" sketch:type="MSShapeGroup"></path>
            <path d="M38.7,339.4 L51.3,324.2 L51.4,324.4 L40.2,321.4 L40.5,321.1 L43.3,327.4 L46.1,333.8 C47.9,338.1 49.7,342.3 51.5,346.6 L51.5,346.6 L51.5,346.6 C49.5,342.4 47.6,338.2 45.7,334 L42.9,327.7 L40.1,321.3 C40.1,321.2 40.1,321.1 40.2,321 L40.3,321 L51.4,324.1 C51.5,324.1 51.5,324.2 51.5,324.3 C51.5,324.3 51.5,324.3 51.5,324.4 L38.7,339.4 L38.7,339.4 C38.7,339.4 38.6,339.4 38.7,339.4 L38.7,339.4 Z" id="Shape" fill="#666666" sketch:type="MSShapeGroup"></path>
            <path d="M39.5,317.3 L51.3,301.5 L51.4,301.7 L40.6,296.7 L40.9,296.4 L43.6,302.8 L46.3,309.3 C48,313.6 49.8,317.9 51.5,322.3 L51.5,322.3 L51.5,322.3 C49.6,318.1 47.8,313.8 45.9,309.5 L43.2,303.1 L40.5,296.6 C40.5,296.5 40.5,296.4 40.6,296.3 L40.8,296.3 L51.5,301.4 C51.6,301.4 51.6,301.5 51.6,301.6 L51.6,301.6 L39.5,317.3 C39.5,317.4 39.5,317.4 39.5,317.3 C39.5,317.4 39.5,317.3 39.5,317.3 L39.5,317.3 Z" id="Shape" fill="#666666" sketch:type="MSShapeGroup"></path>
            <circle id="Oval" stroke="#48C7ED" stroke-width="0.6887" sketch:type="MSShapeGroup" cx="39.9" cy="39.8" r="10.5"></circle>
            <circle id="Oval" stroke="#7AC143" stroke-width="0.6887" sketch:type="MSShapeGroup" cx="39.9" cy="39.8" r="27.2"></circle>
            <circle id="Oval" stroke="#FEE000" stroke-width="0.6887" sketch:type="MSShapeGroup" cx="39.9" cy="39.8" r="39.4"></circle>
            <g id="Group" transform="translate(37.000000, 39.000000)" sketch:type="MSShapeGroup">
                <path d="M2.2,54.3 L2.9,2.9" id="Shape" stroke="#999999" stroke-width="0.6887"></path>
                <g>
                    <circle id="Oval" fill="#FFFFFF" cx="2.9" cy="3" r="1.9"></circle>
                    <path d="M5,3 C5,4.2 4,5.1 2.8,5.1 C1.6,5.1 0.7,4.1 0.7,2.9 C0.7,1.7 1.7,0.8 2.9,0.8 C4.1,0.8 5.1,1.8 5,3 C5,4.2 5.1,1.8 5,3 L5,3 Z M1.3,2.9 C1.3,3.8 2,4.5 2.9,4.6 C3.8,4.6 4.5,3.9 4.6,3 C4.6,2.1 3.9,1.4 3,1.3 C2,1.3 1.3,2 1.3,2.9 C1.3,3.8 1.3,2 1.3,2.9 L1.3,2.9 Z" id="Shape" fill="#999999"></path>
                </g>
            </g>
            <path d="M38.2,375.2 L42.6,99.9 L28.1,104.5 L10.4,375.2 L38.2,375.2 Z" id="tower_side_9_" stroke="#7E8580" stroke-width="0.4" fill="#EEEEEE" sketch:type="MSShapeGroup"></path>
            <path d="M53.2,375.2 L51.4,107.6 L42.8,99.9 L38.2,375.2 L53.2,375.2 Z" id="tower_side_2_9_" stroke="#7E8580" stroke-width="0.4" fill="#9D9D9D" sketch:type="MSShapeGroup"></path>
            <path d="M36.5,101.6 L39.2,89.8 L39.2,89.8 L41,100.2 L36.5,101.6 Z" id="Shape" fill="#EEEEEE" sketch:type="MSShapeGroup"></path>
            <path d="M42.9,99.7 L41,100.2 L39.2,89.8 L42.9,99.7 Z" id="Shape" fill="#9D9D9D" sketch:type="MSShapeGroup"></path>
            <path d="M40,295.1 L51.3,280.6 L51.3,280.8 L41.3,275.2 L41.6,274.9 L44.1,280.8 C44.9,282.8 45.8,284.7 46.6,286.7 C48.2,290.6 49.9,294.6 51.4,298.5 L51.4,298.5 L51.4,298.5 C49.6,294.6 47.9,290.7 46.2,286.8 C45.3,284.9 44.5,282.9 43.7,280.9 L41.2,275 C41.2,274.9 41.2,274.8 41.3,274.7 L41.5,274.7 L51.5,280.4 C51.6,280.4 51.6,280.5 51.6,280.6 L51.6,280.6 L40,295.1 L40,295.1 L40,295.1 L40,295.1 Z" id="Shape" fill="#666666" sketch:type="MSShapeGroup"></path>
            <path d="M40.6,272.4 L51.3,261.3 L51.3,261.5 L41.9,256.1 L42.2,255.8 C43.8,259.5 45.4,263.3 46.9,267.1 C48.4,270.9 50,274.7 51.4,278.5 L51.4,278.5 L51.4,278.5 C49.7,274.8 48.1,271 46.5,267.3 C44.9,263.5 43.4,259.8 41.8,256 C41.8,255.9 41.8,255.8 41.9,255.7 L42.1,255.7 L51.5,261.2 C51.6,261.2 51.6,261.3 51.6,261.4 L51.6,261.4 L40.6,272.4 L40.6,272.4 L40.6,272.4 L40.6,272.4 Z" id="Shape" fill="#666666" sketch:type="MSShapeGroup"></path>
            <path d="M41.6,253 L50.4,241.6 L50.4,241.7 L41.9,237.3 L42.1,237.1 L47,248.3 C48.6,252.1 50.2,255.8 51.8,259.5 L51.8,259.5 L51.8,259.5 C50.1,255.8 48.4,252.1 46.7,248.4 L41.8,237.2 C41.8,237.1 41.8,237.1 41.9,237 L42,237 L50.4,241.4 C50.4,241.4 50.5,241.5 50.4,241.5 L50.4,241.5 L41.6,253 L41.6,253 L41.6,253 L41.6,253 Z" id="Shape" fill="#666666" sketch:type="MSShapeGroup"></path>
            <path d="M41.6,234.8 L50.8,224.4 L50.8,224.5 L42.6,219.2 L42.8,219 C44.2,222.3 45.6,225.6 46.9,229 C48.2,232.3 49.6,235.7 50.8,239 L50.8,239 L50.8,239 C49.3,235.7 48,232.4 46.6,229.1 C45.2,225.8 43.9,222.4 42.5,219.1 C42.5,219 42.5,218.9 42.6,218.9 L42.7,218.9 L50.8,224.3 C50.8,224.3 50.9,224.4 50.8,224.4 L50.8,224.4 L41.6,234.8 L41.6,234.8 L41.6,234.8 L41.6,234.8 Z" id="Shape" fill="#666666" sketch:type="MSShapeGroup"></path>
            <path d="M42.7,216.1 L50.8,206.9 L50.8,207 L42.6,202.7 L42.8,202.5 L46.9,212 C48.2,215.2 49.6,218.4 50.8,221.6 L50.8,221.6 L50.8,221.6 C49.3,218.5 48,215.3 46.6,212.1 L42.6,202.6 C42.6,202.5 42.6,202.4 42.7,202.4 L42.8,202.4 L50.9,206.8 C50.9,206.8 51,206.9 50.9,206.9 L50.9,206.9 L42.7,216.1 L42.7,216.1 L42.7,216.1 L42.7,216.1 Z" id="Shape" fill="#666666" sketch:type="MSShapeGroup"></path>
            <path d="M42.7,200.1 L49.8,191.3 L49.8,191.4 L43.2,187.6 L43.4,187.4 C44.5,190 45.6,192.7 46.7,195.3 C47.8,198 48.8,200.6 49.9,203.3 L49.9,203.3 L49.9,203.3 C48.7,200.7 47.6,198 46.5,195.4 C45.4,192.8 44.3,190.1 43.2,187.4 C43.2,187.3 43.2,187.2 43.3,187.2 L43.4,187.2 L50,191.1 C50,191.1 50.1,191.2 50,191.2 L50,191.2 L42.7,200.1 L42.7,200.1 L42.7,200.1 L42.7,200.1 Z" id="Shape" fill="#666666" sketch:type="MSShapeGroup"></path>
            <path d="M43.4,184.9 L49.9,174.9 L49.9,175.1 L43.9,172.7 L44.1,172.5 L45.5,176.2 C46,177.4 46.4,178.7 46.9,179.9 C47.8,182.4 48.7,184.9 49.5,187.4 L49.5,187.4 L49.5,187.4 C48.5,185 47.6,182.5 46.6,180 C46.1,178.8 45.7,177.5 45.2,176.3 L43.8,172.6 C43.8,172.5 43.8,172.4 43.9,172.4 L44,172.4 L49.9,174.8 C50,174.8 50,174.9 50,174.9 L50,174.9 L43.4,184.9 C43.4,185 43.4,185 43.4,184.9 C43.4,185 43.4,184.9 43.4,184.9 L43.4,184.9 Z" id="Shape" fill="#666666" sketch:type="MSShapeGroup"></path>
            <path d="M44.2,169.9 L49.8,159.9 L49.8,160 L44.1,157.5 L44.3,157.3 C45.3,159.8 46.2,162.4 47.2,164.9 C48.1,167.5 49.1,170 49.9,172.6 L49.9,172.6 L49.9,172.6 C48.9,170.1 47.9,167.5 46.9,165 C45.9,162.5 45,159.9 44.1,157.4 C44.1,157.3 44.1,157.2 44.2,157.2 L44.3,157.2 L50,159.8 C50.1,159.8 50.1,159.9 50.1,159.9 L50.1,159.9 L44.2,169.9 L44.2,169.9 L44.2,169.9 L44.2,169.9 Z" id="Shape" fill="#666666" sketch:type="MSShapeGroup"></path>
            <path d="M43.4,155.5 L50,149.1 L50,149.2 L44.3,145.4 L44.4,145.3 L47.3,151.3 L50.1,157.4 L50.1,157.4 L50.1,157.4 L47.2,151.4 L44.3,145.4 L44.3,145.3 L44.4,145.3 L50.1,149.1 C50.1,149.1 50.1,149.1 50.1,149.2 L50.1,149.2 L43.4,155.5 L43.4,155.5 L43.4,155.5 L43.4,155.5 Z" id="Shape" fill="#666666" sketch:type="MSShapeGroup"></path>
            <path d="M43.4,142.7 L50,135.5 L50,135.6 L44.4,131.7 L44.5,131.6 L47,138.4 L49.5,145.3 L49.5,145.3 L49.5,145.3 L46.9,138.5 L44.4,131.7 L44.4,131.6 L44.5,131.6 L50.1,135.5 C50.1,135.5 50.1,135.5 50.1,135.6 L50.1,135.6 L43.4,142.7 L43.4,142.7 L43.4,142.7 L43.4,142.7 Z" id="Shape" fill="#666666" sketch:type="MSShapeGroup"></path>
            <path d="M44.4,129.8 L50,124 L50,124.1 L44.4,120.3 L44.5,120.2 L47.3,126.5 L50,132.8 L50,132.8 L50,132.8 L47.1,126.5 L44.3,120.2 L44.3,120.1 L44.4,120.1 L50,124 C50,124 50,124 50,124.1 L50,124.1 L44.4,129.8 L44.4,129.8 L44.4,129.8 L44.4,129.8 Z" id="Shape" fill="#666666" sketch:type="MSShapeGroup"></path>
            <path d="M44.4,117.8 L50,112.2 L50,112.3 L44.4,109.8 L44.5,109.7 L47.3,115.3 L50,121 L50,121 L50,121 L47.1,115.4 L44.3,109.8 L44.3,109.7 L44.4,109.7 L50,112.2 C50,112.2 50,112.2 50,112.3 L50,112.3 L44.4,117.8 L44.4,117.8 L44.4,117.8 L44.4,117.8 Z" id="Shape" fill="#666666" sketch:type="MSShapeGroup"></path>
            <g id="Group" transform="translate(14.000000, 107.000000)" fill="#999999" sketch:type="MSShapeGroup">
                <path d="M0.1,261.9 L19.8,236.3 L20,236.6 L1.2,238.4 L1.4,238 L6.1,243.5 C7.7,245.3 9.2,247.2 10.8,249.1 C13.9,252.8 17,256.5 20.1,260.3 L20.1,260.3 L20.1,260.3 C16.9,256.7 13.7,253 10.6,249.3 C9,247.5 7.4,245.6 5.9,243.8 L1.2,238.3 C1.1,238.2 1.1,238 1.2,237.9 L1.3,237.8 L20.1,236.2 C20.2,236.2 20.3,236.3 20.3,236.4 L20.3,236.5 L0.1,261.9 L0.1,261.9 L0.1,261.9 L0.1,261.9 Z" id="Shape"></path>
                <path d="M2,236.4 L21.1,211 L21.3,211.3 L3.7,213 L3.9,212.6 L8,217.9 L12,223.3 L16,228.7 C17.3,230.5 18.7,232.3 20,234.1 L20,234.1 L20,234.1 C18.6,232.3 17.2,230.6 15.8,228.8 L11.7,223.5 L7.6,218.2 L3.5,212.9 C3.4,212.8 3.4,212.6 3.5,212.5 C3.5,212.5 3.6,212.5 3.6,212.4 L21.2,210.8 C21.3,210.8 21.4,210.9 21.4,211 L21.4,211.1 L2,236.4 L2,236.4 L2,236.4 L2,236.4 Z" id="Shape"></path>
                <path d="M4.3,211.1 L21.1,189.1 L21.3,189.4 L5.6,190.7 L5.8,190.3 L9.4,194.9 L13,199.5 L16.6,204.1 C17.8,205.6 18.9,207.2 20.1,208.8 L20.1,208.8 L20.1,208.8 C18.9,207.3 17.6,205.8 16.4,204.3 L12.7,199.7 L9,195.1 L5.4,190.5 C5.3,190.4 5.3,190.2 5.4,190.1 L5.5,190 L21.2,188.8 C21.3,188.8 21.4,188.9 21.4,189 L21.4,189.1 L4.3,211.1 L4.3,211.1 L4.3,211.1 L4.3,211.1 Z" id="Shape"></path>
                <path d="M5.7,188.1 L21,168.8 L21.2,169.1 L5.7,171.1 L5.9,170.7 L9.8,174.6 C11.1,175.9 12.4,177.2 13.6,178.5 L17.4,182.4 C18.7,183.7 19.9,185 21.2,186.3 L21.2,186.3 L21.2,186.3 C19.9,185 18.6,183.8 17.3,182.5 L13.4,178.7 C12.1,177.4 10.8,176.2 9.5,174.9 L5.6,171 C5.5,170.9 5.5,170.7 5.6,170.6 C5.6,170.6 5.7,170.5 5.8,170.5 L21.3,168.7 C21.4,168.7 21.5,168.8 21.5,168.9 L21.5,169 L5.7,188.1 L5.7,188.1 L5.7,188.1 L5.7,188.1 Z" id="Shape"></path>
                <path d="M6.8,168.8 L22.1,147.8 L22.3,148.1 L7.3,150.5 L7.5,150.1 L11,154.2 L14.5,158.4 L18,162.6 C19.2,164 20.3,165.4 21.4,166.8 L21.4,166.8 L21.4,166.8 C20.2,165.4 19,164.1 17.8,162.7 L14.3,158.6 L10.8,154.5 L7.3,150.4 C7.2,150.3 7.2,150.1 7.3,150 L7.4,149.9 L22.5,147.7 C22.6,147.7 22.7,147.8 22.7,147.8 L22.7,147.9 L6.8,168.8 C6.8,168.9 6.8,168.9 6.8,168.8 C6.8,168.9 6.8,168.9 6.8,168.8 L6.8,168.8 Z" id="Shape"></path>
                <path d="M9.1,129.1 L22.2,110.2 L22.3,110.4 L10,113.8 L10.1,113.5 C12.2,115.6 14.2,117.7 16.2,119.8 C18.2,121.9 20.3,124 22.3,126.2 L22.3,126.2 L22.3,126.2 C20.2,124.1 18.1,122.1 16.1,120 C14,117.9 12,115.8 9.9,113.7 C9.8,113.6 9.8,113.5 9.9,113.5 L10,113.5 L22.3,110.3 C22.4,110.3 22.4,110.3 22.5,110.4 L22.5,110.5 L9.1,129.1 C9.1,129.2 9.1,129.2 9.1,129.1 C9.1,129.2 9.1,129.1 9.1,129.1 L9.1,129.1 Z" id="Shape"></path>
                <path d="M10.3,111.6 L22.1,94.6 L22.2,94.8 L11.3,96.9 L11.4,96.6 C13.2,98.4 15,100.2 16.8,102.1 C18.6,103.9 20.4,105.8 22.2,107.6 L22.2,107.6 L22.2,107.6 C20.3,105.8 18.5,104 16.7,102.2 C14.9,100.4 13,98.6 11.2,96.8 C11.1,96.7 11.1,96.6 11.2,96.6 L11.3,96.6 L22.2,94.6 C22.3,94.6 22.3,94.6 22.3,94.7 L22.3,94.8 L10.3,111.6 L10.3,111.6 L10.3,111.6 L10.3,111.6 Z" id="Shape"></path>
                <path d="M22.3,90.1 L12.6,80.3 L12.6,80.2 L12.6,80.2 L24.1,77 C24.2,77 24.3,77 24.3,77.1 L24.3,77.2 C22.2,80.1 20.1,83.1 18,86 C15.9,88.9 13.8,91.8 11.6,94.7 L11.6,94.7 L11.6,94.7 C13.6,91.7 15.7,88.8 17.8,85.8 C19.9,82.9 22,79.9 24.1,77 L24.3,77.2 L12.8,80.3 L12.8,80.1 L22.3,90.1 L22.3,90.1 L22.3,90.1 L22.3,90.1 Z" id="Shape"></path>
                <path d="M12.6,77.9 L24.1,62.8 L24.2,63 L12.7,64.9 L12.8,64.6 C14.4,66.4 16,68.2 17.6,70 C19.2,71.8 20.8,73.6 22.3,75.4 L22.3,75.4 L22.3,75.4 C20.6,73.7 19,71.9 17.4,70.1 C15.8,68.3 14.1,66.6 12.5,64.8 C12.4,64.7 12.4,64.6 12.5,64.6 L12.6,64.6 L24.1,62.8 C24.2,62.8 24.2,62.8 24.2,62.9 L24.2,63 L12.6,77.9 C12.6,78 12.6,78 12.6,77.9 C12.6,78 12.6,77.9 12.6,77.9 L12.6,77.9 Z" id="Shape"></path>
                <path d="M12.6,62.9 L25.1,48.4 L25.2,48.6 L13.5,51.4 L13.6,51.1 C15.4,52.6 17.1,54.2 18.9,55.7 C20.7,57.3 22.4,58.8 24.2,60.4 L24.2,60.4 L24.2,60.4 C22.4,58.9 20.6,57.4 18.8,55.9 C17,54.4 15.2,52.9 13.4,51.3 C13.3,51.2 13.3,51.1 13.4,51.1 C13.4,51.1 13.5,51.1 13.5,51 L25.2,48.3 C25.3,48.3 25.3,48.3 25.3,48.4 L25.3,48.5 L12.6,62.9 L12.6,62.9 L12.6,62.9 L12.6,62.9 Z" id="Shape"></path>
                <path d="M14.5,48.5 L24.1,35.7 L24.2,35.8 L14.6,37.3 L14.6,37.2 C17.8,40.3 21,43.5 24.2,46.7 L24.2,46.7 L24.2,46.7 C21,43.6 17.7,40.5 14.5,37.3 L14.5,37.2 L14.5,37.2 L24.1,35.8 L24.2,35.8 L24.2,35.8 L14.5,48.5 L14.5,48.5 L14.5,48.5 L14.5,48.5 Z" id="Shape"></path>
                <path d="M15.7,34.3 L25.2,22.8 L25.3,22.9 L15.8,24.2 L15.8,24.1 C18.6,27.2 21.4,30.4 24.2,33.6 L24.2,33.6 L24.2,33.6 C21.4,30.5 18.5,27.4 15.7,24.2 L15.7,24.1 L15.7,24.1 L25.2,22.9 C25.2,22.9 25.3,22.9 25.3,23 L25.3,23 L15.7,34.3 L15.7,34.3 L15.7,34.3 L15.7,34.3 Z" id="Shape"></path>
                <path d="M16.3,21.9 L25.1,10.8 L25.2,10.9 L15.7,12.6 L15.7,12.5 C18.5,14.5 21.3,16.6 24.1,18.6 L24.1,18.6 L24.1,18.6 C21.3,16.6 18.4,14.6 15.6,12.6 L15.6,12.5 L15.7,12.5 L25.2,10.8 L25.3,10.8 L25.3,10.8 L16.3,21.9 L16.3,21.9 L16.3,21.9 L16.3,21.9 Z" id="Shape"></path>
                <path d="M16.3,9.8 L26.6,0.8 L26.7,0.9 L17.9,3.2 L17.9,3.1 C20,4.9 22.1,6.7 24.1,8.6 L24.1,8.6 L24.1,8.6 C22,6.8 19.9,5 17.8,3.2 L17.8,3.1 L17.8,3.1 L26.6,0.8 L26.7,0.8 C26.7,0.8 26.7,0.8 26.7,0.9 L16.3,9.8 L16.3,9.8 L16.3,9.8 L16.3,9.8 Z" id="Shape"></path>
                <path d="M7.8,148 L22.1,130.2 L22.2,130.4 L9.5,132.3 L9.6,132 C11.7,134.1 13.8,136.2 15.9,138.4 C18,140.5 20.1,142.7 22.2,144.8 L22.2,144.8 L22.2,144.8 C20,142.7 17.9,140.6 15.7,138.5 C13.5,136.4 11.4,134.3 9.3,132.2 C9.2,132.1 9.2,132 9.3,132 L9.4,132 L22.2,130.2 C22.3,130.2 22.3,130.2 22.3,130.3 L22.3,130.4 L7.8,148 L7.8,148 L7.8,148 L7.8,148 Z" id="Shape"></path>
            </g>
            <path d="M39.4,359.4 L51.2,343.6 L51.3,343.8 L40.5,338.8 L40.8,338.5 L43.5,344.9 L46.2,351.4 C47.9,355.7 49.7,360 51.4,364.4 L51.4,364.4 L51.4,364.4 C49.5,360.2 47.7,355.9 45.8,351.6 L43.1,345.1 L40.4,338.6 C40.4,338.5 40.4,338.4 40.5,338.3 L40.7,338.3 L51.4,343.4 C51.5,343.4 51.5,343.5 51.5,343.6 L51.5,343.6 L39.4,359.4 L39.4,359.4 L39.4,359.4 L39.4,359.4 Z" id="Shape" fill="#666666" sketch:type="MSShapeGroup"></path>
            <path d="M39.9,337.1 L51.2,322.6 L51.2,322.8 L41.2,317.2 L41.5,316.9 L44,322.8 C44.8,324.8 45.7,326.7 46.5,328.7 C48.1,332.6 49.8,336.6 51.3,340.5 L51.3,340.5 L51.3,340.5 C49.5,336.6 47.8,332.7 46.1,328.8 C45.2,326.9 44.4,324.9 43.6,322.9 L41.1,317 C41.1,316.9 41.1,316.8 41.2,316.7 L41.4,316.7 L51.4,322.4 C51.5,322.4 51.5,322.5 51.5,322.6 L51.5,322.6 L39.9,337.1 C39.9,337.2 39.9,337.2 39.9,337.1 C39.9,337.2 39.9,337.1 39.9,337.1 L39.9,337.1 Z" id="Shape" fill="#666666" sketch:type="MSShapeGroup"></path>
            <path d="M40.5,314.5 L51.2,303.4 L51.2,303.6 L41.8,298.2 L42.1,297.9 C43.7,301.6 45.3,305.4 46.8,309.2 C48.3,313 49.9,316.8 51.3,320.6 L51.3,320.6 L51.3,320.6 C49.6,316.9 48,313.1 46.4,309.4 C44.8,305.6 43.3,301.9 41.7,298.1 C41.7,298 41.7,297.9 41.8,297.8 L42,297.8 L51.4,303.3 C51.5,303.3 51.5,303.4 51.5,303.5 L51.5,303.5 L40.5,314.5 L40.5,314.5 L40.5,314.5 L40.5,314.5 Z" id="Shape" fill="#666666" sketch:type="MSShapeGroup"></path>
        </g>
    </g>
</svg>